<?xml version="1.0" encoding="UTF-8" standalone="no"?>
<!-- Created with Inkscape (http://www.inkscape.org/) -->

<svg
   xmlns:dc="http://purl.org/dc/elements/1.1/"
   xmlns:cc="http://creativecommons.org/ns#"
   xmlns:rdf="http://www.w3.org/1999/02/22-rdf-syntax-ns#"
   xmlns:svg="http://www.w3.org/2000/svg"
   xmlns="http://www.w3.org/2000/svg"
   xmlns:sodipodi="http://sodipodi.sourceforge.net/DTD/sodipodi-0.dtd"
   xmlns:inkscape="http://www.inkscape.org/namespaces/inkscape"
   width="167.03859"
   height="167.12929"
   id="svg3914"
   version="1.1"
   inkscape:version="0.48.2 r9819"
   sodipodi:docname="sunny_buddy_pcb.svg">
  <defs
     id="defs3916">
    <style
       id="style4113"
       type="text/css">
path.l17 {stroke:#32c832; fill:none; }
line.l17 {stroke:#32c832; fill:none; }
circle.l17 {stroke:#32c832; fill:none; }
circle.j17 {fill:#32c832; }
rect.l17 {fill:#32c832; }
text.l17 {font-family:sans-serif; fill:#32c832; }
polygon.l17 {fill:#32c832; }
path.l20 {stroke:#000000; fill:none; }
line.l20 {stroke:#000000; fill:none; }
circle.l20 {stroke:#000000; fill:none; }
circle.j20 {fill:#000000; }
rect.l20 {fill:#000000; }
text.l20 {font-family:sans-serif; fill:#000000; }
polygon.l20 {fill:#000000; }
path.l21 {stroke:#ffffff; fill:none; }
line.l21 {stroke:#ffffff; fill:none; }
circle.l21 {stroke:#ffffff; fill:none; }
circle.j21 {fill:#ffffff; }
rect.l21 {fill:#ffffff; }
text.l21 {font-family:sans-serif; fill:#ffffff; }
polygon.l21 {fill:#ffffff; }
circle.j0 {fill:#ffffff; }
</style>
  </defs>
  <sodipodi:namedview
     id="base"
     pagecolor="#ffffff"
     bordercolor="#666666"
     borderopacity="1.0"
     inkscape:pageopacity="0.0"
     inkscape:pageshadow="2"
     inkscape:zoom="2.8"
     inkscape:cx="51.002229"
     inkscape:cy="81.303569"
     inkscape:document-units="mm"
     inkscape:current-layer="layer1"
     showgrid="true"
     units="mm"
     inkscape:window-width="1920"
     inkscape:window-height="996"
     inkscape:window-x="-8"
     inkscape:window-y="-8"
     inkscape:window-maximized="1"
     fit-margin-top="0"
     fit-margin-left="0"
     fit-margin-right="0"
     fit-margin-bottom="0">
    <inkscape:grid
       type="xygrid"
       id="grid3922"
       empspacing="4"
       visible="true"
       enabled="true"
       snapvisiblegridlinesonly="true"
       units="mm"
       spacingx="0.5mm"
       spacingy="0.5mm" />
  </sodipodi:namedview>
  <metadata
     id="metadata3919">
    <rdf:RDF>
      <cc:Work
         rdf:about="">
        <dc:format>image/svg+xml</dc:format>
        <dc:type
           rdf:resource="http://purl.org/dc/dcmitype/StillImage" />
        <dc:title></dc:title>
      </cc:Work>
    </rdf:RDF>
  </metadata>
  <g
     inkscape:groupmode="layer"
     id="layer2"
     inkscape:label="Layer 2"
     transform="translate(-113.11654,-60.675585)" />
  <g
     inkscape:label="Layer 1"
     inkscape:groupmode="layer"
     id="layer1"
     transform="translate(-113.11654,506.96466)"
     style="display:inline">
    <g
       id="g4172"
       transform="matrix(3.5433072,0,0,3.5433072,113.38583,-340.19536)">
      <title
         id="title4174">PART C2</title>
    </g>
    <g
       id="g4260"
       transform="matrix(3.5433072,0,0,3.5433072,113.38583,-340.19536)">
      <title
         id="title4262">PART FRAME1</title>
    </g>
    <g
       id="g4640"
       transform="matrix(3.5433072,0,0,3.5433072,113.38583,-340.19536)">
      <title
         id="title4642">PART R6</title>
    </g>
    <g
       id="silkscreen"
       inkscape:label="silkscreen">
      <path
         id="path4116"
         d="m 248.38257,-404.22683 0,-5.10436 m -2.55218,2.55218 5.10435,0"
         style="fill:none;stroke:#ffffff;stroke-width:1.35000014;stroke-linecap:round"
         class="l21"
         inkscape:connector-curvature="0" />
      <path
         id="path4118"
         d="m 261.88257,-431.22683 0,-5.10436 m -2.55218,2.55218 5.10435,0"
         style="fill:none;stroke:#ffffff;stroke-width:1.35000014;stroke-linecap:round"
         class="l21"
         inkscape:connector-curvature="0" />
      <path
         id="path4120"
         d="m 248.38257,-417.72683 0,-5.10436"
         style="fill:none;stroke:#ffffff;stroke-width:1.35000014;stroke-linecap:round"
         class="l21"
         inkscape:connector-curvature="0" />
      <path
         id="path4122"
         d="m 261.88257,-440.22683 0,-5.10436"
         style="fill:none;stroke:#ffffff;stroke-width:1.35000014;stroke-linecap:round"
         class="l21"
         inkscape:connector-curvature="0" />
      <path
         id="path4124"
         d="m 197.44748,-365.2508 -1.27609,-1.27611 m 0,0 -2.55217,0 m 0,0 -1.27609,1.27611 m 0,0 0,1.27608 m 0,0 1.27609,1.27609 m 0,0 2.55217,0 m 0,0 1.27609,1.27609 m 0,0 0,1.27609 m 0,0 -1.27609,1.27609 m 0,0 -2.55217,0 m 0,0 -1.27609,-1.27609 m 8.28707,-3.82827 0,3.82827 m 0,0 1.27609,1.27609 m 0,0 3.82827,0 m 0,0 0,-5.10436 m 3.18272,5.10436 0,-5.10436 m 0,0 3.82827,0 m 0,0 1.27608,1.27609 m 0,0 0,3.82827 m 3.18273,0 0,-5.10436 m 0,0 3.82826,0 m 0,0 1.27609,1.27609 m 0,0 0,3.82827 m 3.18272,-5.10436 0,3.82827 m 0,0 1.27609,1.27609 m 0,0 3.82827,0 m 0,-5.10436 0,6.38045 m 0,0 -1.27609,1.27609 m 0,0 -1.27609,0"
         style="fill:none;stroke:#ffffff;stroke-width:1.35000014;stroke-linecap:round"
         class="l21"
         inkscape:connector-curvature="0" />
      <path
         id="path4126"
         d="m 208.56083,-345.37036 0,-7.65654 m 0,0 3.82827,0 m 0,0 1.27609,1.2761 m 0,0 0,1.27608 m 0,0 -1.27609,1.27609 m 0,0 1.27609,1.27609 m 0,0 0,1.27609 m 0,0 -1.27609,1.27609 m 0,0 -3.82827,0 m 0,-3.82827 3.82827,0 m 4.45881,-1.27609 0,3.82827 m 0,0 1.27609,1.27609 m 0,0 3.82826,0 m 0,0 0,-5.10436 m 8.28708,-2.55218 0,7.65654 m 0,0 -3.82827,0 m 0,0 -1.27608,-1.27609 m 0,0 0,-2.55218 m 0,0 1.27608,-1.27609 m 0,0 3.82827,0 m 8.28708,-2.55218 0,7.65654 m 0,0 -3.82827,0 m 0,0 -1.27609,-1.27609 m 0,0 0,-2.55218 m 0,0 1.27609,-1.27609 m 0,0 3.82827,0 m 3.18272,0 0,3.82827 m 0,0 1.27608,1.27609 m 0,0 3.82827,0 m 0,-5.10436 0,6.38045 m 0,0 -1.27609,1.27609 m 0,0 -1.27609,0"
         style="fill:none;stroke:#ffffff;stroke-width:1.35000014;stroke-linecap:round"
         class="l21"
         inkscape:connector-curvature="0" />
      <path
         id="path4128"
         d="m 150.1794,-421.22611 0.88575,0.88575 m 0,0 0.88576,0 m 0,0 0.88576,-0.88575 m 0,0 0,-4.42879 m -0.88576,0 1.77151,0 m 2.25793,5.31454 0,-5.31454 m 0,0 2.65727,0 m 0,0 0.88575,0.88576 m 0,0 0,1.77151 m 0,0 -0.88575,0.88576 m 0,0 -2.65727,0 m 5.80094,-1.77151 1.77151,-1.77152 m 0,0 0,5.31454 m -1.77151,0 3.54302,0"
         style="fill:none;stroke:#ffffff;stroke-width:0.99000001;stroke-linecap:round"
         class="l21"
         inkscape:connector-curvature="0" />
      <path
         id="path4130"
         d="m 176.80508,-439.98893 0.88575,-0.88575 m 0,0 0,-0.88576 m 0,0 -0.88575,-0.88576 m 0,0 -4.42879,0 m 0,0.88576 0,-1.77151 m 5.31454,-2.25793 -5.31454,0 m 0,0 0,-2.65727 m 0,0 0.88576,-0.88575 m 0,0 1.77151,0 m 0,0 0.88576,0.88575 m 0,0 0,2.65727 m 1.77151,-9.34397 0,3.54302 m 0,0 -3.54302,-3.54302 m 0,0 -0.88576,0 m 0,0 -0.88576,0.88575 m 0,0 0,1.77152 m 0,0 0.88576,0.88575"
         style="fill:none;stroke:#ffffff;stroke-width:0.99000001;stroke-linecap:round"
         class="l21"
         inkscape:connector-curvature="0" />
      <path
         id="path4132"
         d="m 129.12385,-489.56914 -0.88575,-0.88576 m 0,0 -1.77152,0 m 0,0 -0.88575,0.88576 m 0,0 0,0.88576 m 0,0 0.88575,0.88574 m 0,0 1.77152,0 m 0,0 0.88575,0.88577 m 0,0 0,0.88576 m 0,0 -0.88575,0.88575 m 0,0 -1.77152,0 m 0,0 -0.88575,-0.88575 m 8.45822,-4.42879 -1.77152,0 m 0,0 -0.88575,0.88576 m 0,0 0,3.54303 m 0,0 0.88575,0.88575 m 0,0 1.77152,0 m 0,0 0.88575,-0.88575 m 0,0 0,-3.54303 m 0,0 -0.88575,-0.88576 m 3.14368,0 0,5.31454 m 0,0 3.54301,0 m 2.25793,0 0,-3.54302 m 0,0 1.77151,-1.77152 m 0,0 1.77151,1.77152 m 0,0 0,3.54302 m -3.54302,-2.65728 3.54302,0 m 2.25793,2.65728 0,-5.31454 m 0,0 2.65727,0 m 0,0 0.88575,0.88576 m 0,0 0,1.7715 m 0,0 -0.88575,0.88577 m 0,0 -2.65727,0 m 1.77151,0 1.77151,1.77151 m 8.05888,0 1.77151,0 m -0.88576,0 0,-5.31454 m -0.88575,0 1.77151,0 m 2.09578,5.31454 0,-5.31454 m 0,0 3.54302,5.31454 m 0,0 0,-5.31454"
         style="fill:none;stroke:#ffffff;stroke-width:0.99000001;stroke-linecap:round"
         class="l21"
         inkscape:connector-curvature="0" />
      <path
         id="path4134"
         d="m 251.5763,-428.89036 5.31453,0 m 0,0 0,-3.54302 m -5.31453,-4.9152 0,1.77152 m 0,0 0.88575,0.88575 m 0,0 3.54304,0 m 0,0 0.88574,-0.88575 m 0,0 0,-1.77152 m 0,0 -0.88574,-0.88575 m 0,0 -3.54304,0 m 0,0 -0.88575,0.88575 m 5.31453,-3.14368 -3.54302,0 m 0,0 -1.77151,-1.77151 m 0,0 1.77151,-1.77151 m 0,0 3.54302,0 m -2.65727,3.54302 0,-3.54302 m -2.65726,-2.25793 5.31453,0 m 0,0 0,-2.65726 m 0,0 -0.88574,-0.88576 m 0,0 -3.54304,0 m 0,0 -0.88575,0.88576 m 0,0 0,2.65726"
         style="fill:none;stroke:#ffffff;stroke-width:0.99000001;stroke-linecap:round"
         class="l21"
         inkscape:connector-curvature="0" />
      <path
         id="path4136"
         d="m 238.5263,-402.34036 5.31453,0 m 0,0 0,-3.54302 m -5.31453,-4.9152 0,1.77152 m 0,0 0.88575,0.88575 m 0,0 3.54304,0 m 0,0 0.88574,-0.88575 m 0,0 0,-1.77152 m 0,0 -0.88574,-0.88575 m 0,0 -3.54304,0 m 0,0 -0.88575,0.88575 m 5.31453,-3.14368 -3.54302,0 m 0,0 -1.77151,-1.77151 m 0,0 1.77151,-1.77151 m 0,0 3.54302,0 m -2.65727,3.54302 0,-3.54302 m -2.65726,-2.25793 5.31453,0 m 0,0 0,-2.65726 m 0,0 -0.88574,-0.88576 m 0,0 -3.54304,0 m 0,0 -0.88575,0.88576 m 0,0 0,2.65726"
         style="fill:none;stroke:#ffffff;stroke-width:0.99000001;stroke-linecap:round"
         class="l21"
         inkscape:connector-curvature="0" />
      <path
         id="path4138"
         d="m 250.42701,-358.24036 0,-5.31454 m 0,0 2.65727,0 m 0,0 0.88575,0.88576 m 0,0 0,0.88576 m 0,0 -0.88575,0.88575 m 0,0 0.88575,0.88576 m 0,0 0,0.88576 m 0,0 -0.88575,0.88575 m 0,0 -2.65727,0 m 0,-2.65727 2.65727,0 m 3.14368,2.65727 0,-3.54302 m 0,0 1.77151,-1.77152 m 0,0 1.77151,1.77152 m 0,0 0,3.54302 m -3.54302,-2.65727 3.54302,0 m 4.02944,2.65727 0,-5.31454 m -1.77151,0 3.54302,0 m 4.02943,5.31454 0,-5.31454 m -1.77151,0 3.54302,0"
         style="fill:none;stroke:#ffffff;stroke-width:0.99000001;stroke-linecap:round"
         class="l21"
         inkscape:connector-curvature="0" />
      <path
         id="path4140"
         d="m 143.58017,-501.20805 -0.63053,-0.63055 m 0,0 -1.26109,0 m 0,0 -0.63053,0.63055 m 0,0 0,0.63054 m 0,0 0.63053,0.63053 m 0,0 1.26109,0 m 0,0 0.63053,0.63054 m 0,0 0,0.63054 m 0,0 -0.63053,0.63053 m 0,0 -1.26109,0 m 0,0 -0.63053,-0.63053 m 4.14353,-1.89161 0.63053,0 m 0,0 0,2.52214 m -0.63053,0 1.26107,0 m -0.63054,-4.41376 0,0.63053 m 2.13182,3.78323 0,-2.52214 m 0,0 1.89162,0 m 0,0 0.63053,0.63053 m 0,0 0,1.89161 m 2.88246,1.26108 0.63054,0 m 0,0 0.63053,-0.63054 m 0,0 0,-3.15268 m 0,0 -1.89161,0 m 0,0 -0.63054,0.63053 m 0,0 0,1.26108 m 0,0 0.63054,0.63053 m 0,0 1.89161,0 m 1.62139,-3.78323 0.63053,0 m 0,0 0,3.78323 m -0.63053,0 1.26107,0 m 3.3929,0 -1.26109,0 m 0,0 -0.63053,-0.63053 m 0,0 0,-1.26108 m 0,0 0.63053,-0.63053 m 0,0 1.26109,0 m 0,0 0.63053,0.63053 m 0,0 0,0.63054 m 0,0 -2.52215,0 m 4.14353,-0.63054 2.52215,0 m 4.14353,-0.63053 -1.89162,0 m 0,0 -0.63053,0.63053 m 0,0 0,1.26108 m 0,0 0.63053,0.63053 m 0,0 1.89162,0 m 3.513,0 -1.26108,0 m 0,0 -0.63054,-0.63053 m 0,0 0,-1.26108 m 0,0 0.63054,-0.63053 m 0,0 1.26108,0 m 0,0 0.63054,0.63053 m 0,0 0,0.63054 m 0,0 -2.52216,0 m 4.14354,-2.52216 0.63053,0 m 0,0 0,3.78323 m -0.63053,0 1.26107,0 m 1.50128,-3.78323 0.63053,0 m 0,0 0,3.78323 m -0.63053,0 1.26107,0 m 5.64481,-3.78323 0,3.78323 m 0,0 2.52215,0 m 1.62139,-2.52214 0.63053,0 m 0,0 0,2.52214 m -0.63053,0 1.26107,0 m -0.63054,-4.41376 0,0.63053 m 2.13182,3.78323 0,-3.78323 m 0,0 1.89161,0 m 0,0 0.63053,0.63055 m 0,0 0,1.26107 m 0,0 -0.63053,0.63054 m 0,0 -1.89161,0 m 4.77406,1.26107 1.26109,0 m 0,0 0.63053,-0.63053 m 0,0 0,-1.26108 m 0,0 -0.63053,-0.63053 m 0,0 -1.26109,0 m 0,0 -0.63053,0.63053 m 0,0 0,1.26108 m 0,0 0.63053,0.63053 m 7.65653,0 0,-3.78323 m 0,0 1.26108,1.26109 m 0,0 1.26107,-1.26109 m 0,0 0,3.78323 m 1.62139,0 0,-3.78323 m 0,0 1.89161,0 m 0,0 0.63053,0.63055 m 0,0 0,1.26107 m 0,0 -0.63053,0.63054 m 0,0 -1.89161,0 m 4.14353,1.26107 0,-3.78323 m 0,0 1.89161,0 m 0,0 0.63054,0.63055 m 0,0 0,1.26107 m 0,0 -0.63054,0.63054 m 0,0 -1.89161,0 m 5.4046,1.26107 0,-3.78323 m -1.26107,0 2.52215,0 m 8.28706,1.26109 -1.89161,0 m 0,0 -0.63053,0.63053 m 0,0 0,1.26108 m 0,0 0.63053,0.63053 m 0,0 1.89161,0 m 1.62139,-3.78323 0,3.78323 m 0,-1.89161 0.63053,-0.63053 m 0,0 1.26109,0 m 0,0 0.63053,0.63053 m 0,0 0,1.89161 m 2.25191,-2.52214 1.26109,0 m 0,0 0.63053,0.63053 m 0,0 0,1.89161 m 0,0 -1.89162,0 m 0,0 -0.63053,-0.63053 m 0,0 0.63053,-0.63054 m 0,0 1.89162,0 m 1.62138,1.26107 0,-2.52214 m 0,1.26107 1.26108,-1.26107 m 0,0 0.63054,0 m 2.8224,3.78322 0.63054,0 m 0,0 0.63053,-0.63054 m 0,0 0,-3.15268 m 0,0 -1.89161,0 m 0,0 -0.63054,0.63053 m 0,0 0,1.26108 m 0,0 0.63054,0.63053 m 0,0 1.89161,0 m 3.513,0 -1.26108,0 m 0,0 -0.63053,-0.63053 m 0,0 0,-1.26108 m 0,0 0.63053,-0.63053 m 0,0 1.26108,0 m 0,0 0.63053,0.63053 m 0,0 0,0.63054 m 0,0 -2.52214,0 m 4.14353,1.26107 0,-2.52214 m 0,1.26107 1.26107,-1.26107 m 0,0 0.63055,0"
         style="fill:none;stroke:#ffffff;stroke-width:0.72000003;stroke-linecap:round"
         class="l21"
         inkscape:connector-curvature="0" />
      <path
         id="path4142"
         d="m 177.55583,-350.99536 0,-12.43062 m 2.06731,9.54847 -0.63054,0.63053 m 0,0 0,1.26109 m 0,0 0.63054,0.63053 m 0,0 2.52216,0 m 0,0 0.63053,-0.63053 m 0,0 0,-1.26109 m 0,0 -0.63053,-0.63053 m 0.63053,-1.62138 -3.78323,0 m 1.89162,0 0,-2.52215 m -1.89162,0 3.78323,0 m -3.15269,-4.14353 -0.63054,0.63053 m 0,0 0,1.26108 m 0,0 0.63054,0.63053 m 0,0 2.52216,0 m 0,0 0.63053,-0.63053 m 0,0 0,-1.26108 m 0,0 -0.63053,-0.63053 m 0,0 -1.26108,0 m 0,0 0,1.26107"
         style="fill:none;stroke:#ffffff;stroke-width:0.72000003;stroke-linecap:round"
         class="l21"
         inkscape:connector-curvature="0" />
      <path
         id="path4144"
         d="m 168.55583,-350.99536 0,-20.71771 m 5.22,20.35771 -3.78323,0 m 0,0 0,-2.52215 m 1.89162,2.52215 0,-1.26107 m 1.89161,-2.88246 -2.52215,0 m 0,0 -1.26108,-1.26108 m 0,0 1.26108,-1.26107 m 0,0 2.52215,0 m -1.89161,2.52215 0,-2.52215 m -1.89162,-1.62139 3.1527,0 m 0,0 0.63053,-0.63053 m 0,0 0,-1.26108 m 0,0 -0.63053,-0.63053 m 0,0 -3.1527,0 m 0,-1.62139 3.78323,0 m 0,0 0,-2.52215 m 0,-2.88246 -3.78323,0 m 0,1.26108 0,-2.52215"
         style="fill:none;stroke:#ffffff;stroke-width:0.72000003;stroke-linecap:round"
         class="l21"
         inkscape:connector-curvature="0" />
      <path
         id="path4146"
         d="m 161.62314,-353.87751 -0.63054,0.63053 m 0,0 0,1.26109 m 0,0 0.63054,0.63053 m 0,0 2.52216,0 m 0,0 0.63053,-0.63053 m 0,0 0,-1.26109 m 0,0 -0.63053,-0.63053 m 0,0 -1.26108,0 m 0,0 0,1.26108 m 1.89161,-2.88246 -3.78323,0 m 0,0 3.78323,-2.52215 m 0,0 -3.78323,0 m 0,-1.62139 3.78323,0 m 0,0 0,-1.89161 m 0,0 -0.63053,-0.63053 m 0,0 -2.52216,0 m 0,0 -0.63054,0.63053 m 0,0 0,1.89161"
         style="fill:none;stroke:#ffffff;stroke-width:0.72000003;stroke-linecap:round"
         class="l21"
         inkscape:connector-curvature="0" />
      <path
         id="path4148"
         d="m 143.08256,-436.62683 0,-5.10436 m -2.55217,2.55218 5.10435,0"
         style="fill:none;stroke:#ffffff;stroke-width:1.35000014;stroke-linecap:round"
         class="l21"
         inkscape:connector-curvature="0" />
      <path
         id="path4150"
         d="m 143.08256,-424.92683 0,-5.10436"
         style="fill:none;stroke:#ffffff;stroke-width:1.35000014;stroke-linecap:round"
         class="l21"
         inkscape:connector-curvature="0" />
      <path
         id="path4152"
         d="m 141.28256,-476.22683 0,-5.10436 m -2.55217,2.55218 5.10435,0"
         style="fill:none;stroke:#ffffff;stroke-width:1.35000014;stroke-linecap:round"
         class="l21"
         inkscape:connector-curvature="0" />
      <path
         id="path4154"
         d="m 141.28256,-451.92683 0,-5.10436"
         style="fill:none;stroke:#ffffff;stroke-width:1.35000014;stroke-linecap:round"
         class="l21"
         inkscape:connector-curvature="0" />
      <line
         id="line4156"
         style="fill:none;stroke:#ffffff;stroke-width:0.53858268;stroke-linecap:round;stroke-miterlimit:4;stroke-opacity:1;stroke-dasharray:none"
         y2="-506.69537"
         x2="279.88583"
         y1="-506.69537"
         x1="113.38583"
         class="l20" />
      <line
         id="line4158"
         style="fill:none;stroke:#ffffff;stroke-width:0.53858268;stroke-linecap:round;stroke-miterlimit:4;stroke-opacity:1;stroke-dasharray:none"
         y2="-340.19537"
         x2="279.88583"
         y1="-506.69537"
         x1="279.88583"
         class="l20" />
      <line
         id="line4160"
         style="fill:none;stroke:#ffffff;stroke-width:0.53858268;stroke-linecap:round;stroke-miterlimit:4;stroke-opacity:1;stroke-dasharray:none"
         y2="-340.19537"
         x2="113.38583"
         y1="-340.19537"
         x1="279.88583"
         class="l20" />
      <line
         id="line4162"
         style="fill:none;stroke:#ffffff;stroke-width:0.53858268;stroke-linecap:round;stroke-miterlimit:4;stroke-opacity:1;stroke-dasharray:none"
         y2="-506.69537"
         x2="113.38583"
         y1="-340.19537"
         x1="113.38583"
         class="l20" />
      <g
         transform="matrix(3.5433072,0,0,3.5433072,113.38583,-340.19536)"
         id="g4164">
        <title
           id="title4166">PART C1</title>
        <line
           id="line4168"
           style="fill:none;stroke:#ffffff;stroke-width:0.2032;stroke-linecap:round"
           y2="-20.35"
           x2="19.379999"
           y1="-20.35"
           x1="16.18"
           class="l21" />
        <line
           id="line4170"
           style="fill:none;stroke:#ffffff;stroke-width:0.2032;stroke-linecap:round"
           y2="-17.75"
           x2="19.379999"
           y1="-17.75"
           x1="16.18"
           class="l21" />
      </g>
      <g
         transform="matrix(3.5433072,0,0,3.5433072,113.38583,-340.19536)"
         id="g4176">
        <title
           id="title4178">PART C3</title>
        <line
           id="line4180"
           style="fill:none;stroke:#ffffff;stroke-width:0.2032;stroke-linecap:round"
           y2="-27.610001"
           x2="20.26"
           y1="-27.610001"
           x1="21.959999"
           class="l21" />
        <line
           id="line4182"
           style="fill:none;stroke:#ffffff;stroke-width:0.2032;stroke-linecap:round"
           y2="-30.76"
           x2="20.26"
           y1="-27.610001"
           x1="20.26"
           class="l21" />
        <line
           id="line4184"
           style="fill:none;stroke:#ffffff;stroke-width:0.2032;stroke-linecap:round"
           y2="-30.76"
           x2="21.959999"
           y1="-30.76"
           x1="20.26"
           class="l21" />
        <line
           id="line4186"
           style="fill:none;stroke:#ffffff;stroke-width:0.2032;stroke-linecap:round"
           y2="-27.66"
           x2="25.059999"
           y1="-27.66"
           x1="23.860001"
           class="l21" />
        <line
           id="line4188"
           style="fill:none;stroke:#ffffff;stroke-width:0.2032;stroke-linecap:round"
           y2="-28.01"
           x2="25.459999"
           y1="-27.66"
           x1="25.059999"
           class="l21" />
        <line
           id="line4190"
           style="fill:none;stroke:#ffffff;stroke-width:0.2032;stroke-linecap:round"
           y2="-30.459999"
           x2="25.459999"
           y1="-28.01"
           x1="25.459999"
           class="l21" />
        <line
           id="line4192"
           style="fill:none;stroke:#ffffff;stroke-width:0.2032;stroke-linecap:round"
           y2="-30.76"
           x2="25.059999"
           y1="-30.459999"
           x1="25.459999"
           class="l21" />
        <line
           id="line4194"
           style="fill:none;stroke:#ffffff;stroke-width:0.2032;stroke-linecap:round"
           y2="-30.76"
           x2="23.860001"
           y1="-30.76"
           x1="25.059999"
           class="l21" />
        <line
           id="line4196"
           style="fill:none;stroke:#ffffff;stroke-width:0.2032;stroke-linecap:round"
           y2="-30.76"
           x2="23.860001"
           y1="-30.76"
           x1="25.059999"
           class="l21" />
        <line
           id="line4198"
           style="fill:none;stroke:#ffffff;stroke-width:0.2032;stroke-linecap:round"
           y2="-27.924"
           x2="23.469"
           y1="-30.521"
           x1="23.469"
           class="l21" />
      </g>
      <g
         transform="matrix(3.5433072,0,0,3.5433072,113.38583,-340.19536)"
         id="g4200">
        <title
           id="title4202">PART C4</title>
        <line
           id="line4204"
           style="fill:none;stroke:#ffffff;stroke-width:0.2032;stroke-linecap:round"
           y2="-23.799999"
           x2="20.26"
           y1="-23.799999"
           x1="21.959999"
           class="l21" />
        <line
           id="line4206"
           style="fill:none;stroke:#ffffff;stroke-width:0.2032;stroke-linecap:round"
           y2="-26.950001"
           x2="20.26"
           y1="-23.799999"
           x1="20.26"
           class="l21" />
        <line
           id="line4208"
           style="fill:none;stroke:#ffffff;stroke-width:0.2032;stroke-linecap:round"
           y2="-26.950001"
           x2="21.959999"
           y1="-26.950001"
           x1="20.26"
           class="l21" />
        <line
           id="line4210"
           style="fill:none;stroke:#ffffff;stroke-width:0.2032;stroke-linecap:round"
           y2="-23.85"
           x2="25.059999"
           y1="-23.85"
           x1="23.860001"
           class="l21" />
        <line
           id="line4212"
           style="fill:none;stroke:#ffffff;stroke-width:0.2032;stroke-linecap:round"
           y2="-24.200001"
           x2="25.459999"
           y1="-23.85"
           x1="25.059999"
           class="l21" />
        <line
           id="line4214"
           style="fill:none;stroke:#ffffff;stroke-width:0.2032;stroke-linecap:round"
           y2="-26.65"
           x2="25.459999"
           y1="-24.200001"
           x1="25.459999"
           class="l21" />
        <line
           id="line4216"
           style="fill:none;stroke:#ffffff;stroke-width:0.2032;stroke-linecap:round"
           y2="-26.950001"
           x2="25.059999"
           y1="-26.65"
           x1="25.459999"
           class="l21" />
        <line
           id="line4218"
           style="fill:none;stroke:#ffffff;stroke-width:0.2032;stroke-linecap:round"
           y2="-26.950001"
           x2="23.860001"
           y1="-26.950001"
           x1="25.059999"
           class="l21" />
        <line
           id="line4220"
           style="fill:none;stroke:#ffffff;stroke-width:0.2032;stroke-linecap:round"
           y2="-26.950001"
           x2="23.860001"
           y1="-26.950001"
           x1="25.059999"
           class="l21" />
        <line
           id="line4222"
           style="fill:none;stroke:#ffffff;stroke-width:0.2032;stroke-linecap:round"
           y2="-24.114"
           x2="23.469"
           y1="-26.711"
           x1="23.469"
           class="l21" />
      </g>
      <g
         transform="matrix(3.5433072,0,0,3.5433072,113.38583,-340.19536)"
         id="g4224">
        <title
           id="title4226">PART C5</title>
        <line
           id="line4228"
           style="fill:none;stroke:#ffffff;stroke-width:0.55879998;stroke-linecap:round"
           y2="-16.4795"
           x2="26.67"
           y1="-16.540501"
           x1="26.67"
           class="l21" />
      </g>
      <g
         transform="matrix(3.5433072,0,0,3.5433072,113.38583,-340.19536)"
         id="g4230">
        <title
           id="title4232">PART C6</title>
        <line
           id="line4234"
           style="fill:none;stroke:#ffffff;stroke-width:0.55879998;stroke-linecap:round"
           y2="-11.049"
           x2="16.540501"
           y1="-11.049"
           x1="16.4795"
           class="l21" />
      </g>
      <g
         transform="matrix(3.5433072,0,0,3.5433072,113.38583,-340.19536)"
         id="g4236">
        <title
           id="title4238">PART D1</title>
        <line
           id="line4240"
           style="fill:none;stroke:#ffffff;stroke-width:0.1524;stroke-linecap:round"
           y2="-17.6276"
           x2="22.1996"
           y1="-17.6276"
           x1="23.520399"
           class="l21" />
        <line
           id="line4242"
           style="fill:none;stroke:#ffffff;stroke-width:0.1524;stroke-linecap:round"
           y2="-20.472401"
           x2="22.1996"
           y1="-17.6276"
           x1="22.1996"
           class="l21" />
        <line
           id="line4244"
           style="fill:none;stroke:#ffffff;stroke-width:0.1524;stroke-linecap:round"
           y2="-20.472401"
           x2="23.520399"
           y1="-20.472401"
           x1="22.1996"
           class="l21" />
        <line
           id="line4246"
           style="fill:none;stroke:#ffffff;stroke-width:0.1524;stroke-linecap:round"
           y2="-17.6276"
           x2="23.520399"
           y1="-20.472401"
           x1="23.520399"
           class="l21" />
      </g>
      <g
         transform="matrix(3.5433072,0,0,3.5433072,113.38583,-340.19536)"
         id="g4248">
        <title
           id="title4250">PART D2</title>
        <line
           id="line4252"
           style="fill:none;stroke:#ffffff;stroke-width:0.1524;stroke-linecap:round"
           y2="-15.3924"
           x2="27.3304"
           y1="-15.3924"
           x1="26.0096"
           class="l21" />
        <line
           id="line4254"
           style="fill:none;stroke:#ffffff;stroke-width:0.1524;stroke-linecap:round"
           y2="-12.5476"
           x2="27.3304"
           y1="-15.3924"
           x1="27.3304"
           class="l21" />
        <line
           id="line4256"
           style="fill:none;stroke:#ffffff;stroke-width:0.1524;stroke-linecap:round"
           y2="-12.5476"
           x2="26.0096"
           y1="-12.5476"
           x1="27.3304"
           class="l21" />
        <line
           id="line4258"
           style="fill:none;stroke:#ffffff;stroke-width:0.1524;stroke-linecap:round"
           y2="-15.3924"
           x2="26.0096"
           y1="-12.5476"
           x1="26.0096"
           class="l21" />
      </g>
      <g
         transform="matrix(3.5433072,0,0,3.5433072,113.38583,-340.19536)"
         id="g4264">
        <title
           id="title4266">PART J1</title>
        <line
           id="line4268"
           style="fill:none;stroke:#ffffff;stroke-width:0.2032;stroke-linecap:round"
           y2="-9.4700003"
           x2="14.88"
           y1="-18.469999"
           x1="14.88"
           class="l21" />
        <line
           id="line4270"
           style="fill:none;stroke:#ffffff;stroke-width:0.2032;stroke-linecap:round"
           y2="-16.469999"
           x2="1.58"
           y1="-18.469999"
           x1="1.58"
           class="l21" />
        <line
           id="line4272"
           style="fill:none;stroke:#ffffff;stroke-width:0.2032;stroke-linecap:round"
           y2="-11.47"
           x2="1.58"
           y1="-16.469999"
           x1="1.58"
           class="l21" />
        <line
           id="line4274"
           style="fill:none;stroke:#ffffff;stroke-width:0.2032;stroke-linecap:round"
           y2="-9.4700003"
           x2="1.58"
           y1="-11.47"
           x1="1.58"
           class="l21" />
        <line
           id="line4276"
           style="fill:none;stroke:#ffffff;stroke-width:0.2032;stroke-linecap:round"
           y2="-16.469999"
           x2="5.0799999"
           y1="-16.469999"
           x1="1.58"
           class="l21" />
        <path
           id="path4278"
           style="fill:none;stroke:#ffffff;stroke-width:0.2032;stroke-linecap:round"
           d="M 7.366,-13.97 A 2.395391,2.395391 0 0 0 5.08,-16.47"
           class="l21"
           inkscape:connector-curvature="0" />
        <path
           id="path4280"
           style="fill:none;stroke:#ffffff;stroke-width:0.2032;stroke-linecap:round"
           d="m 5.08,-11.47 a 2.395391,2.395391 0 0 0 2.286,-2.5"
           class="l21"
           inkscape:connector-curvature="0" />
        <line
           id="line4282"
           style="fill:none;stroke:#ffffff;stroke-width:0.2032;stroke-linecap:round"
           y2="-11.47"
           x2="1.58"
           y1="-11.47"
           x1="5.0799999"
           class="l21" />
        <line
           id="line4284"
           style="fill:none;stroke:#ffffff;stroke-width:0.2032;stroke-linecap:round"
           y2="-18.469999"
           x2="3.0799999"
           y1="-18.469999"
           x1="1.58"
           class="l21" />
        <line
           id="line4286"
           style="fill:none;stroke:#ffffff;stroke-width:0.2032;stroke-linecap:round"
           y2="-18.469999"
           x2="9.1800003"
           y1="-18.469999"
           x1="7.0799999"
           class="l21" />
        <line
           id="line4288"
           style="fill:none;stroke:#ffffff;stroke-width:0.2032;stroke-linecap:round"
           y2="-18.469999"
           x2="14.88"
           y1="-18.469999"
           x1="13.28"
           class="l21" />
        <line
           id="line4290"
           style="fill:none;stroke:#ffffff;stroke-width:0.2032;stroke-linecap:round"
           y2="-9.4700003"
           x2="13.18"
           y1="-9.4700003"
           x1="14.88"
           class="l21" />
        <line
           id="line4292"
           style="fill:none;stroke:#ffffff;stroke-width:0.2032;stroke-linecap:round"
           y2="-9.4700003"
           x2="7.0799999"
           y1="-9.4700003"
           x1="9.1800003"
           class="l21" />
        <line
           id="line4294"
           style="fill:none;stroke:#ffffff;stroke-width:0.2032;stroke-linecap:round"
           y2="-9.4700003"
           x2="1.58"
           y1="-9.4700003"
           x1="3.0799999"
           class="l21" />
        <circle
           id="circle4296"
           style="fill:none;stroke:#000000;stroke-width:0.005"
           r="1.016"
           cy="-13.97"
           cx="5.0799999"
           class="l20"
           sodipodi:cx="5.0799999"
           sodipodi:cy="-13.97"
           sodipodi:rx="1.016"
           sodipodi:ry="1.016"
           d="m 6.096,-13.97 c 0,0.561121 -0.4548788,1.016 -1.0160001,1.016 -0.5611213,0 -1.016,-0.454879 -1.016,-1.016 0,-0.561122 0.4548787,-1.016 1.016,-1.016 0.5611213,0 1.0160001,0.454878 1.0160001,1.016 z" />
        <circle
           id="circle4298"
           style="fill:none;stroke:#000000;stroke-width:0.005"
           r="1.016"
           cy="-13.97"
           cx="9.6520004"
           class="l20"
           sodipodi:cx="9.6520004"
           sodipodi:cy="-13.97"
           sodipodi:rx="1.016"
           sodipodi:ry="1.016"
           d="m 10.668,-13.97 c 0,0.561121 -0.454878,1.016 -1.0159996,1.016 -0.5611213,0 -1.016,-0.454879 -1.016,-1.016 0,-0.561122 0.4548787,-1.016 1.016,-1.016 0.5611216,0 1.0159996,0.454878 1.0159996,1.016 z" />
      </g>
      <line
         class="l21"
         x1="161.92914"
         y1="-450.25049"
         x2="161.92914"
         y2="-457.69144"
         style="fill:none;stroke:#ffffff;stroke-width:0.72000003;stroke-linecap:round"
         id="line4304" />
      <line
         class="l21"
         x1="124.01575"
         y1="-450.25049"
         x2="142.79527"
         y2="-450.25049"
         style="fill:none;stroke:#ffffff;stroke-width:0.72000003;stroke-linecap:round"
         id="line4306" />
      <line
         class="l21"
         x1="161.92914"
         y1="-450.25049"
         x2="159.44882"
         y2="-450.25049"
         style="fill:none;stroke:#ffffff;stroke-width:0.72000003;stroke-linecap:round"
         id="line4308" />
      <line
         class="l21"
         x1="124.01575"
         y1="-482.14026"
         x2="161.92914"
         y2="-482.14026"
         style="fill:none;stroke:#ffffff;stroke-width:0.72000003;stroke-linecap:round"
         id="line4310" />
      <line
         class="l21"
         x1="161.92914"
         y1="-482.14026"
         x2="161.92914"
         y2="-474.69931"
         style="fill:none;stroke:#ffffff;stroke-width:0.72000003;stroke-linecap:round"
         id="line4312" />
      <line
         class="l21"
         x1="124.01575"
         y1="-482.14026"
         x2="124.01575"
         y2="-450.25049"
         style="fill:none;stroke:#ffffff;stroke-width:0.72000003;stroke-linecap:round"
         id="line4314" />
      <g
         transform="matrix(3.5433072,0,0,3.5433072,113.38583,-340.19536)"
         id="g4328">
        <title
           id="title4330">PART J4</title>
        <line
           id="line4332"
           style="fill:none;stroke:#ffffff;stroke-width:0.2032;stroke-linecap:round"
           y2="-15.43"
           x2="38.68"
           y1="-15.43"
           x1="42.18"
           class="l21" />
        <line
           id="line4334"
           style="fill:none;stroke:#ffffff;stroke-width:0.2032;stroke-linecap:round"
           y2="-14.63"
           x2="38.68"
           y1="-15.43"
           x1="38.68"
           class="l21" />
        <line
           id="line4336"
           style="fill:none;stroke:#ffffff;stroke-width:0.2032;stroke-linecap:round"
           y2="-14.63"
           x2="41.18"
           y1="-14.63"
           x1="38.68"
           class="l21" />
        <line
           id="line4338"
           style="fill:none;stroke:#ffffff;stroke-width:0.2032;stroke-linecap:round"
           y2="-13.43"
           x2="41.18"
           y1="-14.63"
           x1="41.18"
           class="l21" />
        <line
           id="line4340"
           style="fill:none;stroke:#ffffff;stroke-width:0.2032;stroke-linecap:round"
           y2="-8.2299995"
           x2="41.18"
           y1="-9.4300003"
           x1="41.18"
           class="l21" />
        <line
           id="line4342"
           style="fill:none;stroke:#ffffff;stroke-width:0.2032;stroke-linecap:round"
           y2="-8.2299995"
           x2="38.68"
           y1="-8.2299995"
           x1="41.18"
           class="l21" />
        <line
           id="line4344"
           style="fill:none;stroke:#ffffff;stroke-width:0.2032;stroke-linecap:round"
           y2="-7.4299998"
           x2="38.68"
           y1="-8.2299995"
           x1="38.68"
           class="l21" />
        <line
           id="line4346"
           style="fill:none;stroke:#ffffff;stroke-width:0.2032;stroke-linecap:round"
           y2="-7.4299998"
           x2="42.18"
           y1="-7.4299998"
           x1="38.68"
           class="l21" />
        <line
           id="line4348"
           style="fill:none;stroke:#ffffff;stroke-width:0.2032;stroke-linecap:round"
           y2="-13.43"
           x2="46.18"
           y1="-9.4300003"
           x1="46.18"
           class="l21" />
      </g>
      <line
         class="l21"
         x1="266.38583"
         y1="-432.44537"
         x2="266.38583"
         y2="-436.94537"
         style="fill:none;stroke:#ffffff;stroke-width:0.72000003;stroke-linecap:round"
         id="line4354" />
      <line
         class="l21"
         x1="266.38583"
         y1="-436.94537"
         x2="268.63583"
         y2="-439.19537"
         style="fill:none;stroke:#ffffff;stroke-width:0.72000003;stroke-linecap:round"
         id="line4356" />
      <line
         class="l21"
         x1="273.13583"
         y1="-439.19537"
         x2="275.38583"
         y2="-436.94537"
         style="fill:none;stroke:#ffffff;stroke-width:0.72000003;stroke-linecap:round"
         id="line4358" />
      <line
         class="l21"
         x1="268.63583"
         y1="-439.19537"
         x2="266.38583"
         y2="-441.44537"
         style="fill:none;stroke:#ffffff;stroke-width:0.72000003;stroke-linecap:round"
         id="line4360" />
      <line
         class="l21"
         x1="266.38583"
         y1="-441.44537"
         x2="266.38583"
         y2="-445.94537"
         style="fill:none;stroke:#ffffff;stroke-width:0.72000003;stroke-linecap:round"
         id="line4362" />
      <line
         class="l21"
         x1="266.38583"
         y1="-445.94537"
         x2="268.63583"
         y2="-448.19537"
         style="fill:none;stroke:#ffffff;stroke-width:0.72000003;stroke-linecap:round"
         id="line4364" />
      <line
         class="l21"
         x1="273.13583"
         y1="-448.19537"
         x2="275.38583"
         y2="-445.94537"
         style="fill:none;stroke:#ffffff;stroke-width:0.72000003;stroke-linecap:round"
         id="line4366" />
      <line
         class="l21"
         x1="275.38583"
         y1="-445.94537"
         x2="275.38583"
         y2="-441.44537"
         style="fill:none;stroke:#ffffff;stroke-width:0.72000003;stroke-linecap:round"
         id="line4368" />
      <line
         class="l21"
         x1="275.38583"
         y1="-441.44537"
         x2="273.13583"
         y2="-439.19537"
         style="fill:none;stroke:#ffffff;stroke-width:0.72000003;stroke-linecap:round"
         id="line4370" />
      <line
         class="l21"
         x1="268.63583"
         y1="-430.19537"
         x2="273.13583"
         y2="-430.19537"
         style="fill:none;stroke:#ffffff;stroke-width:0.72000003;stroke-linecap:round"
         id="line4372" />
      <line
         class="l21"
         x1="266.38583"
         y1="-432.44537"
         x2="268.63583"
         y2="-430.19537"
         style="fill:none;stroke:#ffffff;stroke-width:0.72000003;stroke-linecap:round"
         id="line4374" />
      <line
         class="l21"
         x1="273.13583"
         y1="-430.19537"
         x2="275.38583"
         y2="-432.44537"
         style="fill:none;stroke:#ffffff;stroke-width:0.72000003;stroke-linecap:round"
         id="line4376" />
      <line
         class="l21"
         x1="275.38583"
         y1="-436.94537"
         x2="275.38583"
         y2="-432.44537"
         style="fill:none;stroke:#ffffff;stroke-width:0.72000003;stroke-linecap:round"
         id="line4378" />
      <line
         class="l21"
         x1="268.63583"
         y1="-448.19537"
         x2="273.13583"
         y2="-448.19537"
         style="fill:none;stroke:#ffffff;stroke-width:0.72000003;stroke-linecap:round"
         id="line4380" />
      <line
         class="l21"
         x1="252.08859"
         y1="-401.04459"
         x2="252.08859"
         y2="-425.84772"
         style="fill:none;stroke:#ffffff;stroke-width:0.72000003;stroke-linecap:round"
         id="line4394" />
      <line
         class="l21"
         x1="252.08859"
         y1="-425.84772"
         x2="274.0571"
         y2="-425.84772"
         style="fill:none;stroke:#ffffff;stroke-width:0.72000003;stroke-linecap:round"
         id="line4396" />
      <line
         class="l21"
         x1="274.0571"
         y1="-425.84772"
         x2="276.89175"
         y2="-425.84772"
         style="fill:none;stroke:#ffffff;stroke-width:0.72000003;stroke-linecap:round"
         id="line4398" />
      <line
         class="l21"
         x1="276.89175"
         y1="-425.84772"
         x2="276.89175"
         y2="-401.04459"
         style="fill:none;stroke:#ffffff;stroke-width:0.72000003;stroke-linecap:round"
         id="line4400" />
      <line
         class="l21"
         x1="276.89175"
         y1="-401.04459"
         x2="274.0571"
         y2="-401.04459"
         style="fill:none;stroke:#ffffff;stroke-width:0.72000003;stroke-linecap:round"
         id="line4402" />
      <line
         class="l21"
         x1="274.0571"
         y1="-401.04459"
         x2="252.08859"
         y2="-401.04459"
         style="fill:none;stroke:#ffffff;stroke-width:0.72000003;stroke-linecap:round"
         id="line4404" />
      <line
         class="l21"
         x1="274.0571"
         y1="-425.84772"
         x2="274.0571"
         y2="-401.04459"
         style="fill:none;stroke:#ffffff;stroke-width:0.72000003;stroke-linecap:round"
         id="line4406" />
      <line
         class="l21"
         x1="138.93307"
         y1="-476.89615"
         x2="138.93307"
         y2="-452.09299"
         style="fill:none;stroke:#ffffff;stroke-width:0.72000003;stroke-linecap:round"
         id="line4420" />
      <line
         class="l21"
         x1="138.93307"
         y1="-452.09299"
         x2="116.96457"
         y2="-452.09299"
         style="fill:none;stroke:#ffffff;stroke-width:0.72000003;stroke-linecap:round"
         id="line4422" />
      <line
         class="l21"
         x1="116.96457"
         y1="-452.09299"
         x2="114.12992"
         y2="-452.09299"
         style="fill:none;stroke:#ffffff;stroke-width:0.72000003;stroke-linecap:round"
         id="line4424" />
      <line
         class="l21"
         x1="114.12992"
         y1="-452.09299"
         x2="114.12992"
         y2="-476.89615"
         style="fill:none;stroke:#ffffff;stroke-width:0.72000003;stroke-linecap:round"
         id="line4426" />
      <line
         class="l21"
         x1="114.12992"
         y1="-476.89615"
         x2="116.96457"
         y2="-476.89615"
         style="fill:none;stroke:#ffffff;stroke-width:0.72000003;stroke-linecap:round"
         id="line4428" />
      <line
         class="l21"
         x1="116.96457"
         y1="-476.89615"
         x2="138.93307"
         y2="-476.89615"
         style="fill:none;stroke:#ffffff;stroke-width:0.72000003;stroke-linecap:round"
         id="line4430" />
      <line
         class="l21"
         x1="116.96457"
         y1="-452.09299"
         x2="116.96457"
         y2="-476.89615"
         style="fill:none;stroke:#ffffff;stroke-width:0.72000003;stroke-linecap:round"
         id="line4432" />
      <line
         class="l21"
         x1="138.93307"
         y1="-445.39615"
         x2="138.93307"
         y2="-420.59299"
         style="fill:none;stroke:#ffffff;stroke-width:0.72000003;stroke-linecap:round"
         id="line4446" />
      <line
         class="l21"
         x1="138.93307"
         y1="-420.59299"
         x2="116.96457"
         y2="-420.59299"
         style="fill:none;stroke:#ffffff;stroke-width:0.72000003;stroke-linecap:round"
         id="line4448" />
      <line
         class="l21"
         x1="116.96457"
         y1="-420.59299"
         x2="114.12992"
         y2="-420.59299"
         style="fill:none;stroke:#ffffff;stroke-width:0.72000003;stroke-linecap:round"
         id="line4450" />
      <line
         class="l21"
         x1="114.12992"
         y1="-420.59299"
         x2="114.12992"
         y2="-445.39615"
         style="fill:none;stroke:#ffffff;stroke-width:0.72000003;stroke-linecap:round"
         id="line4452" />
      <line
         class="l21"
         x1="114.12992"
         y1="-445.39615"
         x2="116.96457"
         y2="-445.39615"
         style="fill:none;stroke:#ffffff;stroke-width:0.72000003;stroke-linecap:round"
         id="line4454" />
      <line
         class="l21"
         x1="116.96457"
         y1="-445.39615"
         x2="138.93307"
         y2="-445.39615"
         style="fill:none;stroke:#ffffff;stroke-width:0.72000003;stroke-linecap:round"
         id="line4456" />
      <line
         class="l21"
         x1="116.96457"
         y1="-420.59299"
         x2="116.96457"
         y2="-445.39615"
         style="fill:none;stroke:#ffffff;stroke-width:0.72000003;stroke-linecap:round"
         id="line4458" />
      <g
         transform="matrix(3.5433072,0,0,3.5433072,113.38583,-340.19536)"
         id="g4468">
        <title
           id="title4470">PART JP1</title>
        <line
           id="line4472"
           style="fill:none;stroke:#ffffff;stroke-width:0.1524;stroke-linecap:round"
           y2="-24.4"
           x2="11.9"
           y1="-24.4"
           x1="13.5"
           class="l21" />
        <path
           id="path4474"
           style="fill:none;stroke:#ffffff;stroke-width:0.1524;stroke-linecap:round"
           d="M 13.8,-26.15 A 0.276134,0.276134 0 0 0 13.5,-26.4"
           class="l21"
           inkscape:connector-curvature="0" />
        <path
           id="path4476"
           style="fill:none;stroke:#ffffff;stroke-width:0.1524;stroke-linecap:round"
           d="m 11.9,-26.4 a 0.276134,0.276134 0 0 0 -0.3,0.25"
           class="l21"
           inkscape:connector-curvature="0" />
        <path
           id="path4478"
           style="fill:none;stroke:#ffffff;stroke-width:0.1524;stroke-linecap:round"
           d="m 11.6,-24.65 a 0.275859,0.275859 0 0 0 0.3,0.25"
           class="l21"
           inkscape:connector-curvature="0" />
        <path
           id="path4480"
           style="fill:none;stroke:#ffffff;stroke-width:0.1524;stroke-linecap:round"
           d="m 13.5,-24.4 a 0.276134,0.276134 0 0 0 0.3,-0.25"
           class="l21"
           inkscape:connector-curvature="0" />
        <line
           id="line4482"
           style="fill:none;stroke:#ffffff;stroke-width:0.1524;stroke-linecap:round"
           y2="-26.15"
           x2="13.8"
           y1="-24.65"
           x1="13.8"
           class="l21" />
        <line
           id="line4484"
           style="fill:none;stroke:#ffffff;stroke-width:0.1524;stroke-linecap:round"
           y2="-26.15"
           x2="11.6"
           y1="-24.65"
           x1="11.6"
           class="l21" />
        <line
           id="line4486"
           style="fill:none;stroke:#ffffff;stroke-width:0.1524;stroke-linecap:round"
           y2="-26.4"
           x2="13.5"
           y1="-26.4"
           x1="11.9"
           class="l21" />
      </g>
      <g
         transform="matrix(3.5433072,0,0,3.5433072,113.38583,-340.19536)"
         id="g4488">
        <title
           id="title4490">PART JP2</title>
        <line
           id="line4492"
           style="fill:none;stroke:#ffffff;stroke-width:0.2032;stroke-linecap:round"
           y2="-31.280001"
           x2="14.24"
           y1="-29.68"
           x1="14.24"
           class="l21" />
        <path
           id="path4494"
           style="fill:none;stroke:#ffffff;stroke-width:0.2032;stroke-linecap:round"
           d="m 15.94,-29.48 a 0.25495,0.25495 0 0 0 0.3,-0.2"
           class="l21"
           inkscape:connector-curvature="0" />
        <path
           id="path4496"
           style="fill:none;stroke:#ffffff;stroke-width:0.2032;stroke-linecap:round"
           d="m 16.24,-31.28 a 0.25495,0.25495 0 0 0 -0.3,-0.2"
           class="l21"
           inkscape:connector-curvature="0" />
        <path
           id="path4498"
           style="fill:none;stroke:#ffffff;stroke-width:0.2032;stroke-linecap:round"
           d="m 14.54,-31.48 a 0.25495,0.25495 0 0 0 -0.3,0.2"
           class="l21"
           inkscape:connector-curvature="0" />
        <path
           id="path4500"
           style="fill:none;stroke:#ffffff;stroke-width:0.2032;stroke-linecap:round"
           d="m 14.24,-29.68 a 0.25495,0.25495 0 0 0 0.3,0.2"
           class="l21"
           inkscape:connector-curvature="0" />
        <line
           id="line4502"
           style="fill:none;stroke:#ffffff;stroke-width:0.2032;stroke-linecap:round"
           y2="-29.68"
           x2="16.24"
           y1="-31.280001"
           x1="16.24"
           class="l21" />
      </g>
      <line
         class="l21"
         x1="167.38583"
         y1="-342.44537"
         x2="165.13583"
         y2="-340.19537"
         style="fill:none;stroke:#ffffff;stroke-width:0.72000003;stroke-linecap:round"
         id="line4508" />
      <line
         class="l21"
         x1="165.13583"
         y1="-340.19537"
         x2="160.63583"
         y2="-340.19537"
         style="fill:none;stroke:#ffffff;stroke-width:0.72000003;stroke-linecap:round"
         id="line4510" />
      <line
         class="l21"
         x1="160.63583"
         y1="-340.19537"
         x2="158.38583"
         y2="-342.44537"
         style="fill:none;stroke:#ffffff;stroke-width:0.72000003;stroke-linecap:round"
         id="line4512" />
      <line
         class="l21"
         x1="158.38583"
         y1="-346.94537"
         x2="160.63583"
         y2="-349.19537"
         style="fill:none;stroke:#ffffff;stroke-width:0.72000003;stroke-linecap:round"
         id="line4514" />
      <line
         class="l21"
         x1="160.63583"
         y1="-349.19537"
         x2="165.13583"
         y2="-349.19537"
         style="fill:none;stroke:#ffffff;stroke-width:0.72000003;stroke-linecap:round"
         id="line4516" />
      <line
         class="l21"
         x1="165.13583"
         y1="-349.19537"
         x2="167.38583"
         y2="-346.94537"
         style="fill:none;stroke:#ffffff;stroke-width:0.72000003;stroke-linecap:round"
         id="line4518" />
      <line
         class="l21"
         x1="183.13583"
         y1="-340.19537"
         x2="178.63583"
         y2="-340.19537"
         style="fill:none;stroke:#ffffff;stroke-width:0.72000003;stroke-linecap:round"
         id="line4520" />
      <line
         class="l21"
         x1="178.63583"
         y1="-340.19537"
         x2="176.38583"
         y2="-342.44537"
         style="fill:none;stroke:#ffffff;stroke-width:0.72000003;stroke-linecap:round"
         id="line4522" />
      <line
         class="l21"
         x1="176.38583"
         y1="-346.94537"
         x2="178.63583"
         y2="-349.19537"
         style="fill:none;stroke:#ffffff;stroke-width:0.72000003;stroke-linecap:round"
         id="line4524" />
      <line
         class="l21"
         x1="176.38583"
         y1="-342.44537"
         x2="174.13583"
         y2="-340.19537"
         style="fill:none;stroke:#ffffff;stroke-width:0.72000003;stroke-linecap:round"
         id="line4526" />
      <line
         class="l21"
         x1="174.13583"
         y1="-340.19537"
         x2="169.63583"
         y2="-340.19537"
         style="fill:none;stroke:#ffffff;stroke-width:0.72000003;stroke-linecap:round"
         id="line4528" />
      <line
         class="l21"
         x1="169.63583"
         y1="-340.19537"
         x2="167.38583"
         y2="-342.44537"
         style="fill:none;stroke:#ffffff;stroke-width:0.72000003;stroke-linecap:round"
         id="line4530" />
      <line
         class="l21"
         x1="167.38583"
         y1="-346.94537"
         x2="169.63583"
         y2="-349.19537"
         style="fill:none;stroke:#ffffff;stroke-width:0.72000003;stroke-linecap:round"
         id="line4532" />
      <line
         class="l21"
         x1="169.63583"
         y1="-349.19537"
         x2="174.13583"
         y2="-349.19537"
         style="fill:none;stroke:#ffffff;stroke-width:0.72000003;stroke-linecap:round"
         id="line4534" />
      <line
         class="l21"
         x1="174.13583"
         y1="-349.19537"
         x2="176.38583"
         y2="-346.94537"
         style="fill:none;stroke:#ffffff;stroke-width:0.72000003;stroke-linecap:round"
         id="line4536" />
      <line
         class="l21"
         x1="185.38583"
         y1="-342.44537"
         x2="185.38583"
         y2="-346.94537"
         style="fill:none;stroke:#ffffff;stroke-width:0.72000003;stroke-linecap:round"
         id="line4538" />
      <line
         class="l21"
         x1="183.13583"
         y1="-340.19537"
         x2="185.38583"
         y2="-342.44537"
         style="fill:none;stroke:#ffffff;stroke-width:0.72000003;stroke-linecap:round"
         id="line4540" />
      <line
         class="l21"
         x1="185.38583"
         y1="-346.94537"
         x2="183.13583"
         y2="-349.19537"
         style="fill:none;stroke:#ffffff;stroke-width:0.72000003;stroke-linecap:round"
         id="line4542" />
      <line
         class="l21"
         x1="178.63583"
         y1="-349.19537"
         x2="183.13583"
         y2="-349.19537"
         style="fill:none;stroke:#ffffff;stroke-width:0.72000003;stroke-linecap:round"
         id="line4544" />
      <line
         class="l21"
         x1="158.38583"
         y1="-342.44537"
         x2="158.38583"
         y2="-346.94537"
         style="fill:none;stroke:#ffffff;stroke-width:0.72000003;stroke-linecap:round"
         id="line4546" />
      <g
         transform="matrix(3.5433072,0,0,3.5433072,113.38583,-340.19536)"
         id="g4560">
        <title
           id="title4562">PART L1</title>
        <line
           id="line4564"
           style="fill:none;stroke:#ffffff;stroke-width:0.127;stroke-linecap:round"
           y2="-26.049999"
           x2="26.83"
           y1="-18.049999"
           x1="26.83"
           class="l21" />
        <line
           id="line4566"
           style="fill:none;stroke:#ffffff;stroke-width:0.127;stroke-linecap:round"
           y2="-26.049999"
           x2="27.93"
           y1="-26.049999"
           x1="26.83"
           class="l21" />
        <line
           id="line4568"
           style="fill:none;stroke:#ffffff;stroke-width:0.127;stroke-linecap:round"
           y2="-18.049999"
           x2="27.93"
           y1="-18.049999"
           x1="26.83"
           class="l21" />
        <line
           id="line4570"
           style="fill:none;stroke:#ffffff;stroke-width:0.127;stroke-linecap:round"
           y2="-26.049999"
           x2="34.130001"
           y1="-18.049999"
           x1="34.130001"
           class="l21" />
        <line
           id="line4572"
           style="fill:none;stroke:#ffffff;stroke-width:0.127;stroke-linecap:round"
           y2="-26.049999"
           x2="33.029999"
           y1="-26.049999"
           x1="34.130001"
           class="l21" />
        <line
           id="line4574"
           style="fill:none;stroke:#ffffff;stroke-width:0.127;stroke-linecap:round"
           y2="-18.049999"
           x2="33.029999"
           y1="-18.049999"
           x1="34.130001"
           class="l21" />
      </g>
      <g
         transform="matrix(3.5433072,0,0,3.5433072,113.38583,-340.19536)"
         id="g4576"
         style="stroke:none;fill:#ffffff;fill-opacity:1">
        <title
           id="title4578">PART LOGO1</title>
        <polygon
           id="polygon4580"
           points="20,-34 20.08,-34.02 20.16,-34.06 20.23,-34.1 20.29,-34.17 20.32,-34.25 20.34,-34.34 20.32,-34.42 20.28,-34.49 20.2,-34.55 20.1,-34.6 19.98,-34.65 19.83,-34.69 19.65,-34.73 19.45,-34.78 19.29,-34.82 19.12,-34.87 18.97,-34.93 18.84,-35 18.72,-35.1 18.63,-35.22 18.58,-35.36 18.56,-35.53 18.59,-35.78 18.66,-35.98 18.79,-36.14 18.95,-36.26 19.13,-36.34 19.34,-36.4 19.56,-36.43 19.79,-36.44 20.02,-36.43 20.23,-36.4 20.44,-36.34 20.62,-36.25 20.78,-36.13 20.9,-35.97 20.99,-35.78 21.04,-35.54 20.94,-35.54 20.85,-35.54 20.76,-35.54 20.67,-35.54 20.57,-35.54 20.48,-35.54 20.39,-35.54 20.3,-35.54 20.28,-35.64 20.24,-35.72 20.19,-35.79 20.13,-35.84 20.05,-35.88 19.96,-35.9 19.87,-35.92 19.77,-35.92 19.7,-35.92 19.62,-35.91 19.55,-35.9 19.48,-35.88 19.42,-35.84 19.38,-35.8 19.35,-35.74 19.33,-35.66 19.35,-35.56 19.41,-35.49 19.5,-35.43 19.61,-35.38 19.74,-35.34 19.89,-35.31 20.05,-35.27 20.22,-35.24 20.38,-35.19 20.55,-35.14 20.7,-35.08 20.83,-35 20.95,-34.9 21.04,-34.77 21.09,-34.62 21.11,-34.44 21.08,-34.19 21,-33.98 20.87,-33.81 20.71,-33.67 20.51,-33.57 20.29,-33.51 20.06,-33.47 19.82,-33.46 19.58,-33.47 19.34,-33.51 19.12,-33.58 18.92,-33.68 18.75,-33.81 18.62,-33.98 18.53,-34.2 18.49,-34.45 18.58,-34.45 18.68,-34.45 18.77,-34.45 18.86,-34.45 18.95,-34.45 19.05,-34.45 19.14,-34.45 19.23,-34.45 19.24,-34.34 19.28,-34.24 19.34,-34.16 19.42,-34.09 19.51,-34.04 19.61,-34.01 19.71,-33.99 19.83,-33.98 19.91,-33.98 "
           class="l21"
           style="fill:#ffffff;stroke:none;fill-opacity:1" />
        <polygon
           id="polygon4582"
           points="23.51,-34.77 23.52,-34.94 24.3,-34.92 24.28,-34.64 24.22,-34.37 24.13,-34.13 23.44,-34.46 23.49,-34.61 "
           class="l21"
           style="fill:#ffffff;stroke:none;fill-opacity:1" />
        <polygon
           id="polygon4584"
           points="22.47,-33.63 22.37,-33.7 22.29,-33.79 22.21,-33.89 22.21,-33.63 22.21,-33.38 22.21,-33.12 22.21,-32.87 22.21,-32.61 22.21,-32.36 22.21,-32.1 22.21,-31.85 22.11,-31.94 22.01,-32.02 21.91,-32.11 21.82,-32.2 21.72,-32.28 21.62,-32.37 21.53,-32.45 21.43,-32.54 21.43,-33 21.43,-33.46 21.43,-33.93 21.43,-34.39 21.43,-34.85 21.43,-35.31 21.43,-35.77 21.43,-36.23 21.52,-36.25 21.61,-36.27 21.71,-36.28 21.8,-36.3 21.89,-36.31 21.98,-36.33 22.08,-36.35 22.17,-36.36 22.17,-36.32 22.17,-36.27 22.17,-36.23 22.17,-36.18 22.17,-36.14 22.17,-36.09 22.17,-36.05 22.17,-36 22.25,-36.11 22.34,-36.2 22.43,-36.28 22.53,-36.34 22.64,-36.38 22.76,-36.42 22.89,-36.43 23.01,-36.44 23.32,-36.41 23.59,-36.32 23.81,-36.17 23.99,-35.98 24.13,-35.75 24.22,-35.5 24.28,-35.22 24.3,-34.92 23.52,-34.94 23.51,-35.11 23.49,-35.28 23.44,-35.43 23.37,-35.57 23.28,-35.69 23.16,-35.78 23.02,-35.83 22.84,-35.85 22.67,-35.83 22.52,-35.78 22.41,-35.69 22.32,-35.57 22.25,-35.43 22.21,-35.28 22.18,-35.11 22.17,-34.94 22.18,-34.77 22.21,-34.61 22.25,-34.46 22.32,-34.32 22.41,-34.21 22.53,-34.12 22.68,-34.06 22.85,-34.04 23.03,-34.06 23.17,-34.12 23.29,-34.21 23.38,-34.32 23.44,-34.46 24.13,-34.13 23.99,-33.91 23.82,-33.72 23.6,-33.58 23.35,-33.49 23.06,-33.46 22.93,-33.47 22.81,-33.49 22.69,-33.52 22.58,-33.57 "
           class="l21"
           style="fill:#ffffff;stroke:none;fill-opacity:1" />
        <polygon
           id="polygon4586"
           points="25.8,-34.76 25.76,-34.75 25.71,-34.74 25.67,-34.73 25.63,-34.72 25.48,-35.16 25.66,-35.18 25.83,-35.2 25.99,-35.22 26.08,-34.8 26.03,-34.8 25.99,-34.79 25.94,-34.78 25.9,-34.78 25.85,-34.77 "
           class="l21"
           style="fill:#ffffff;stroke:none;fill-opacity:1" />
        <polygon
           id="polygon4588"
           points="25.32,-34.48 25.31,-34.44 25.3,-34.39 25.3,-34.34 25.3,-34.29 25.31,-34.24 25.32,-34.2 25.34,-34.16 25.36,-34.13 25.38,-34.1 25.41,-34.07 25.44,-34.05 25.48,-34.03 25.51,-34.02 25.55,-34 25.59,-33.99 25.64,-33.98 25.68,-33.98 25.73,-33.98 25.78,-33.98 25.88,-33.98 25.98,-34 26.06,-34.02 26.13,-34.06 26.19,-34.09 26.24,-34.14 26.28,-34.19 26.32,-34.24 26.34,-34.29 26.37,-34.35 26.38,-34.4 26.39,-34.45 26.4,-34.5 26.4,-34.55 26.4,-34.59 26.4,-34.63 26.4,-34.65 26.4,-34.66 26.4,-34.68 26.4,-34.7 26.4,-34.72 26.4,-34.74 26.4,-34.76 26.4,-34.77 26.4,-34.79 26.4,-34.81 26.4,-34.83 26.4,-34.85 26.4,-34.86 26.4,-34.88 26.4,-34.9 26.4,-34.92 26.38,-34.9 26.35,-34.88 26.32,-34.86 26.28,-34.85 26.24,-34.84 26.21,-34.83 26.16,-34.82 26.12,-34.81 26.08,-34.8 25.99,-35.22 26.12,-35.26 26.24,-35.3 26.33,-35.35 26.39,-35.43 26.4,-35.53 26.4,-35.59 26.39,-35.65 26.38,-35.69 26.36,-35.73 26.34,-35.77 26.32,-35.8 26.29,-35.83 26.26,-35.85 26.22,-35.87 26.18,-35.88 26.14,-35.9 26.1,-35.9 26.05,-35.91 26,-35.92 25.95,-35.92 25.9,-35.92 25.85,-35.92 25.79,-35.91 25.74,-35.9 25.7,-35.89 25.65,-35.88 25.61,-35.86 25.58,-35.84 25.54,-35.82 25.51,-35.79 25.48,-35.76 25.46,-35.72 25.44,-35.68 25.42,-35.64 25.41,-35.59 25.39,-35.54 25.39,-35.49 25.34,-35.49 25.29,-35.49 25.24,-35.49 25.19,-35.49 25.15,-35.49 25.1,-35.49 25.05,-35.49 25,-35.49 24.95,-35.49 24.9,-35.49 24.85,-35.49 24.81,-35.49 24.76,-35.49 24.71,-35.49 24.66,-35.49 24.61,-35.49 24.63,-35.62 24.66,-35.74 24.7,-35.84 24.75,-35.94 24.81,-36.03 24.88,-36.11 24.97,-36.17 25.06,-36.23 25.15,-36.28 25.25,-36.33 25.36,-36.36 25.47,-36.39 25.59,-36.41 25.7,-36.42 25.82,-36.43 25.94,-36.43 26.05,-36.43 26.16,-36.43 26.26,-36.42 26.37,-36.4 26.48,-36.38 26.58,-36.36 26.68,-36.33 26.77,-36.29 26.86,-36.24 26.94,-36.18 27.01,-36.12 27.07,-36.04 27.12,-35.96 27.15,-35.86 27.18,-35.75 27.18,-35.63 27.18,-35.54 27.18,-35.45 27.18,-35.35 27.18,-35.26 27.18,-35.17 27.18,-35.08 27.18,-34.99 27.18,-34.89 27.18,-34.8 27.18,-34.71 27.18,-34.62 27.18,-34.53 27.18,-34.43 27.18,-34.34 27.18,-34.25 27.18,-34.16 27.18,-34.11 27.18,-34.06 27.19,-34.01 27.19,-33.97 27.19,-33.92 27.19,-33.88 27.2,-33.83 27.2,-33.79 27.21,-33.75 27.22,-33.71 27.23,-33.67 27.23,-33.64 27.24,-33.61 27.26,-33.58 27.27,-33.55 27.28,-33.53 27.23,-33.53 27.18,-33.53 27.13,-33.53 27.08,-33.53 27.03,-33.53 26.98,-33.53 26.94,-33.53 26.89,-33.53 26.84,-33.53 26.79,-33.53 26.74,-33.53 26.69,-33.53 26.64,-33.53 26.59,-33.53 26.54,-33.53 26.49,-33.53 26.49,-33.55 26.48,-33.56 26.48,-33.58 26.47,-33.6 26.46,-33.61 26.46,-33.63 26.46,-33.65 26.45,-33.66 26.45,-33.68 26.45,-33.7 26.44,-33.72 26.44,-33.73 26.44,-33.75 26.44,-33.77 26.44,-33.79 26.44,-33.8 26.39,-33.76 26.34,-33.71 26.29,-33.67 26.24,-33.64 26.18,-33.61 26.12,-33.58 26.06,-33.55 26,-33.53 25.94,-33.51 25.88,-33.5 25.81,-33.48 25.75,-33.47 25.68,-33.46 25.62,-33.46 25.55,-33.45 25.49,-33.45 25.39,-33.45 25.29,-33.46 25.2,-33.48 25.11,-33.5 25.02,-33.53 24.94,-33.57 24.87,-33.61 24.8,-33.66 24.74,-33.71 24.69,-33.78 24.64,-33.84 24.6,-33.92 24.57,-34 24.54,-34.1 24.53,-34.19 24.52,-34.3 24.55,-34.52 24.61,-34.69 24.7,-34.83 24.83,-34.94 24.97,-35.03 25.13,-35.09 25.3,-35.13 25.48,-35.16 25.63,-34.72 25.59,-34.71 25.55,-34.69 25.51,-34.68 25.47,-34.66 25.44,-34.64 25.41,-34.61 25.38,-34.58 25.36,-34.55 25.34,-34.52 "
           class="l21"
           style="fill:#ffffff;stroke:none;fill-opacity:1" />
        <polygon
           id="polygon4590"
           points="28.36,-36.23 28.36,-36.17 28.36,-36.1 28.36,-36.03 28.36,-35.97 28.36,-35.9 28.36,-35.84 28.43,-35.97 28.51,-36.08 28.61,-36.18 28.73,-36.27 28.85,-36.34 28.98,-36.4 29.12,-36.43 29.27,-36.44 29.29,-36.44 29.31,-36.44 29.33,-36.44 29.35,-36.43 29.37,-36.43 29.4,-36.42 29.42,-36.42 29.44,-36.41 29.44,-36.32 29.44,-36.23 29.44,-36.14 29.44,-36.05 29.44,-35.96 29.44,-35.87 29.44,-35.78 29.44,-35.69 29.41,-35.7 29.38,-35.7 29.34,-35.71 29.31,-35.71 29.27,-35.71 29.23,-35.72 29.19,-35.72 29.16,-35.72 28.96,-35.7 28.8,-35.65 28.66,-35.56 28.56,-35.45 28.48,-35.32 28.43,-35.16 28.4,-34.99 28.39,-34.81 28.39,-34.65 28.39,-34.49 28.39,-34.33 28.39,-34.17 28.39,-34.01 28.39,-33.85 28.39,-33.69 28.39,-33.53 28.29,-33.53 28.2,-33.53 28.1,-33.53 28,-33.53 27.91,-33.53 27.81,-33.53 27.71,-33.53 27.61,-33.53 27.61,-33.87 27.61,-34.21 27.61,-34.55 27.61,-34.88 27.61,-35.22 27.61,-35.56 27.61,-35.89 27.62,-36.23 27.71,-36.25 27.81,-36.26 27.9,-36.28 27.99,-36.3 28.08,-36.31 28.17,-36.33 28.27,-36.35 28.36,-36.36 28.36,-36.3 "
           class="l21"
           style="fill:#ffffff;stroke:none;fill-opacity:1" />
        <polygon
           id="polygon4592"
           points="30.52,-33.54 29.74,-33.54 29.74,-37.01 30.52,-37.44 30.52,-35.35 31.5,-36.36 32.42,-36.36 31.35,-35.32 32.54,-33.54 31.6,-33.54 30.82,-34.8 30.52,-34.51 "
           class="l21"
           style="fill:#ffffff;stroke:none;fill-opacity:1" />
        <polygon
           id="polygon4594"
           points="32.38,-35.97 32.44,-36.04 32.51,-36.1 32.57,-36.17 32.64,-36.23 32.71,-36.3 32.77,-36.36 32.8,-36.36 32.83,-36.36 32.86,-36.36 32.89,-36.36 32.92,-36.36 32.95,-36.36 32.98,-36.36 33.01,-36.36 33.01,-36.39 33.01,-36.42 33.01,-36.45 33.01,-36.47 33.01,-36.5 33.01,-36.53 33.01,-36.55 33.01,-36.58 33.02,-36.76 33.07,-36.93 33.14,-37.07 33.24,-37.2 33.38,-37.3 33.54,-37.38 33.73,-37.42 33.96,-37.44 34.01,-37.44 34.06,-37.44 34.11,-37.44 34.16,-37.43 34.21,-37.43 34.27,-37.43 34.32,-37.42 34.37,-37.42 34.37,-37.35 34.37,-37.28 34.37,-37.2 34.37,-37.13 34.37,-37.06 34.37,-36.99 34.37,-36.91 34.37,-36.84 34.33,-36.85 34.3,-36.85 34.26,-36.85 34.22,-36.85 34.19,-36.85 34.15,-36.85 34.12,-36.86 34.08,-36.86 34.01,-36.85 33.95,-36.84 33.89,-36.82 33.85,-36.78 33.82,-36.74 33.8,-36.68 33.79,-36.61 33.79,-36.53 33.79,-36.51 33.79,-36.49 33.79,-36.47 33.79,-36.45 33.79,-36.43 33.79,-36.41 33.79,-36.38 33.79,-36.36 33.85,-36.36 33.92,-36.36 33.99,-36.36 34.05,-36.36 34.12,-36.36 34.19,-36.36 34.25,-36.36 34.32,-36.36 34.32,-36.3 34.32,-36.23 34.32,-36.17 34.32,-36.1 34.32,-36.04 34.32,-35.97 34.32,-35.91 34.32,-35.84 34.25,-35.84 34.19,-35.84 34.12,-35.84 34.05,-35.84 33.99,-35.84 33.92,-35.84 33.85,-35.84 33.79,-35.84 33.79,-35.56 33.79,-35.27 33.79,-34.98 33.79,-34.69 33.79,-34.4 33.79,-34.11 33.79,-33.82 33.79,-33.54 33.69,-33.54 33.59,-33.54 33.49,-33.54 33.4,-33.54 33.3,-33.54 33.2,-33.54 33.11,-33.54 33.01,-33.54 33.01,-33.82 33.01,-34.11 33.01,-34.4 33.01,-34.69 33.01,-34.98 33.01,-35.27 33.01,-35.56 33.01,-35.84 32.91,-35.84 32.82,-35.84 32.72,-35.84 32.63,-35.84 32.53,-35.84 32.44,-35.84 32.34,-35.84 32.24,-35.84 32.31,-35.91 "
           class="l21"
           style="fill:#ffffff;stroke:none;fill-opacity:1" />
        <polygon
           id="polygon4596"
           points="36.45,-33.63 36.45,-33.68 36.45,-33.73 36.45,-33.78 36.45,-33.83 36.45,-33.88 36.45,-33.93 36.37,-33.82 36.27,-33.72 36.17,-33.64 36.06,-33.57 35.95,-33.52 35.83,-33.49 35.7,-33.47 35.58,-33.46 35.3,-33.48 35.07,-33.54 34.89,-33.64 34.75,-33.78 34.66,-33.95 34.59,-34.15 34.56,-34.37 34.55,-34.62 34.55,-34.84 34.55,-35.06 34.55,-35.28 34.55,-35.49 34.55,-35.71 34.55,-35.93 34.55,-36.15 34.55,-36.36 34.64,-36.36 34.74,-36.36 34.84,-36.36 34.94,-36.36 35.03,-36.36 35.13,-36.36 35.23,-36.36 35.32,-36.36 35.32,-36.16 35.32,-35.96 35.32,-35.76 35.32,-35.56 35.32,-35.36 35.32,-35.17 35.32,-34.97 35.32,-34.77 35.33,-34.6 35.35,-34.46 35.39,-34.34 35.44,-34.24 35.5,-34.17 35.59,-34.11 35.7,-34.08 35.82,-34.07 35.97,-34.08 36.09,-34.12 36.2,-34.18 36.28,-34.26 36.34,-34.37 36.39,-34.51 36.42,-34.68 36.42,-34.88 36.42,-35.07 36.42,-35.25 36.42,-35.44 36.42,-35.62 36.42,-35.81 36.42,-35.99 36.42,-36.18 36.42,-36.36 36.52,-36.36 36.62,-36.36 36.72,-36.36 36.81,-36.36 36.91,-36.36 37.01,-36.36 37.1,-36.36 37.2,-36.36 37.2,-36.01 37.2,-35.66 37.2,-35.3 37.2,-34.95 37.2,-34.6 37.2,-34.24 37.2,-33.89 37.19,-33.54 37.1,-33.54 37.01,-33.54 36.92,-33.54 36.82,-33.54 36.73,-33.54 36.64,-33.54 36.55,-33.54 36.45,-33.54 36.45,-33.58 "
           class="l21"
           style="fill:#ffffff;stroke:none;fill-opacity:1" />
        <polygon
           id="polygon4598"
           points="38.36,-36.27 38.36,-36.22 38.36,-36.17 38.36,-36.12 38.36,-36.07 38.36,-36.02 38.36,-35.97 38.37,-35.97 38.45,-36.08 38.54,-36.18 38.64,-36.26 38.75,-36.33 38.87,-36.38 38.99,-36.41 39.11,-36.43 39.23,-36.44 39.51,-36.42 39.74,-36.36 39.92,-36.26 40.06,-36.12 40.16,-35.95 40.22,-35.75 40.26,-35.53 40.27,-35.28 40.27,-35.06 40.27,-34.84 40.27,-34.62 40.27,-34.41 40.27,-34.19 40.27,-33.97 40.27,-33.75 40.27,-33.54 40.17,-33.54 40.07,-33.54 39.98,-33.54 39.88,-33.54 39.78,-33.54 39.68,-33.54 39.59,-33.54 39.49,-33.54 39.49,-33.74 39.49,-33.94 39.49,-34.14 39.49,-34.33 39.49,-34.53 39.49,-34.73 39.49,-34.93 39.49,-35.13 39.48,-35.3 39.46,-35.44 39.43,-35.56 39.38,-35.66 39.31,-35.73 39.22,-35.78 39.12,-35.82 38.99,-35.83 38.85,-35.82 38.72,-35.78 38.62,-35.72 38.53,-35.64 38.47,-35.53 38.43,-35.39 38.4,-35.22 38.39,-35.02 38.39,-34.83 38.39,-34.65 38.39,-34.46 38.39,-34.28 38.39,-34.09 38.39,-33.91 38.39,-33.72 38.39,-33.54 38.29,-33.54 38.2,-33.54 38.1,-33.54 38,-33.54 37.91,-33.54 37.81,-33.54 37.71,-33.54 37.61,-33.54 37.61,-33.89 37.61,-34.24 37.61,-34.6 37.61,-34.95 37.61,-35.3 37.61,-35.66 37.61,-36.01 37.62,-36.36 37.71,-36.36 37.81,-36.36 37.9,-36.36 37.99,-36.36 38.08,-36.36 38.18,-36.36 38.27,-36.36 38.36,-36.36 38.36,-36.31 "
           class="l21"
           style="fill:#ffffff;stroke:none;fill-opacity:1" />
        <polygon
           id="polygon4600"
           points="33.82,-40.88 33.74,-40.91 33.66,-40.95 33.59,-40.99 33.52,-41.04 33.46,-41.1 33.4,-41.16 33.35,-41.23 33.31,-41.3 33.29,-41.36 33.29,-41.43 33.29,-41.48 33.31,-41.54 33.34,-41.59 33.39,-41.65 33.46,-41.71 33.54,-41.75 33.63,-41.78 33.71,-41.79 33.78,-41.79 33.84,-41.78 33.88,-41.77 33.89,-41.77 33.87,-41.79 33.79,-41.85 33.67,-41.91 33.52,-41.98 33.34,-42.02 33.14,-42.03 32.92,-41.98 32.69,-41.87 32.52,-41.72 32.41,-41.56 32.36,-41.4 32.36,-41.23 32.4,-41.05 32.5,-40.88 32.63,-40.7 32.8,-40.53 32.93,-40.38 32.99,-40.23 33,-40.09 32.95,-39.97 32.87,-39.86 32.75,-39.79 32.6,-39.75 32.44,-39.74 32.33,-39.77 32.24,-39.81 32.17,-39.86 32.12,-39.92 32.08,-39.99 32.06,-40.05 32.06,-40.12 32.08,-40.18 32.11,-40.23 32.15,-40.27 32.2,-40.3 32.25,-40.33 32.29,-40.36 32.33,-40.37 32.36,-40.39 32.37,-40.39 32.35,-40.39 32.32,-40.4 32.27,-40.42 32.2,-40.43 32.12,-40.43 32.03,-40.43 31.92,-40.41 31.82,-40.38 31.72,-40.34 31.63,-40.28 31.54,-40.21 31.47,-40.11 31.42,-40 31.37,-39.86 31.35,-39.7 31.35,-39.51 31.35,-39.19 31.35,-38.87 31.35,-38.55 31.35,-38.23 31.35,-37.9 31.35,-37.58 31.35,-37.26 31.35,-36.94 31.36,-36.96 31.39,-37 31.45,-37.07 31.52,-37.16 31.61,-37.26 31.72,-37.38 31.83,-37.5 31.95,-37.63 32.07,-37.77 32.19,-37.9 32.29,-38.01 32.39,-38.1 32.5,-38.17 32.6,-38.22 32.72,-38.25 32.85,-38.25 33.1,-38.25 33.34,-38.28 33.56,-38.35 33.76,-38.43 33.95,-38.55 34.12,-38.69 34.27,-38.85 34.41,-39.03 34.61,-39.39 34.71,-39.76 34.73,-40.11 34.68,-40.43 34.58,-40.72 34.44,-40.95 34.28,-41.12 34.11,-41.22 34.11,-41.2 34.12,-41.17 34.12,-41.12 34.12,-41.06 34.1,-41 34.07,-40.94 34.02,-40.9 33.95,-40.87 33.89,-40.87 "
           class="l21"
           style="fill:#ffffff;stroke:none;fill-opacity:1" />
      </g>
      <g
         transform="matrix(3.5433072,0,0,3.5433072,113.38583,-340.19536)"
         id="g4608">
        <title
           id="title4610">PART R1</title>
        <line
           id="line4612"
           style="fill:none;stroke:#ffffff;stroke-width:0.1524;stroke-linecap:round"
           y2="-26.577999"
           x2="27.004999"
           y1="-26.577999"
           x1="27.605"
           class="l21" />
        <line
           id="line4614"
           style="fill:none;stroke:#ffffff;stroke-width:0.1524;stroke-linecap:round"
           y2="-27.778"
           x2="27.004999"
           y1="-27.778"
           x1="27.605"
           class="l21" />
      </g>
      <g
         transform="matrix(3.5433072,0,0,3.5433072,113.38583,-340.19536)"
         id="g4616">
        <title
           id="title4618">PART R2</title>
        <rect
           id="rect4620"
           height="0.76200002"
           width="0.45719999"
           y="-10.541"
           x="26.441401"
           class="l21"
           style="fill:#ffffff" />
      </g>
      <g
         transform="matrix(3.5433072,0,0,3.5433072,113.38583,-340.19536)"
         id="g4622">
        <title
           id="title4624">PART R3</title>
        <rect
           id="rect4626"
           height="0.76200002"
           width="0.45719999"
           y="-8.7629995"
           x="23.266399"
           class="l21"
           style="fill:#ffffff" />
      </g>
      <g
         transform="matrix(3.5433072,0,0,3.5433072,113.38583,-340.19536)"
         id="g4628">
        <title
           id="title4630">PART R4</title>
        <rect
           id="rect4632"
           transform="matrix(-1,0,0,-1,63.5,-20.32)"
           height="0.76200002"
           width="0.45719999"
           y="-10.541"
           x="31.5214"
           class="l21"
           style="fill:#ffffff" />
      </g>
      <g
         transform="matrix(3.5433072,0,0,3.5433072,113.38583,-340.19536)"
         id="g4634">
        <title
           id="title4636">PART R5</title>
        <rect
           id="rect4638"
           transform="matrix(-1,0,0,-1,63.5,-16.002)"
           height="0.76200002"
           width="0.45719999"
           y="-8.382"
           x="31.5214"
           class="l21"
           style="fill:#ffffff" />
      </g>
      <g
         style="stroke:#ffffff;stroke-width:0.19999999;stroke-miterlimit:4;stroke-opacity:1;stroke-dasharray:none"
         transform="matrix(3.5433072,0,0,3.5433072,113.38583,-340.19536)"
         id="g4644">
        <title
           id="title4646">PART STANDOFF1</title>
        <circle
           id="circle4648"
           style="fill:none;stroke:#ffffff;stroke-width:0.19999999;stroke-miterlimit:4;stroke-opacity:1;stroke-dasharray:none"
           r="1.651"
           cy="-2.54"
           cx="2.54"
           class="l20"
           sodipodi:cx="2.54"
           sodipodi:cy="-2.54"
           sodipodi:rx="1.651"
           sodipodi:ry="1.651"
           d="m 4.191,-2.54 c 0,0.9118222 -0.7391779,1.65100006 -1.651,1.65100006 -0.9118222,0 -1.65100006,-0.73917786 -1.65100006,-1.65100006 0,-0.9118221 0.73917786,-1.651 1.65100006,-1.651 0.9118221,0 1.651,0.7391779 1.651,1.651 z" />
      </g>
      <g
         style="stroke:#ffffff;stroke-width:0.19999999;stroke-miterlimit:4;stroke-opacity:1;stroke-dasharray:none"
         transform="matrix(3.5433072,0,0,3.5433072,113.38583,-340.19536)"
         id="g4650">
        <title
           id="title4652">PART STANDOFF2</title>
        <circle
           id="circle4654"
           style="fill:none;stroke:#ffffff;stroke-width:0.19999999;stroke-miterlimit:4;stroke-opacity:1;stroke-dasharray:none"
           r="1.651"
           cy="-44.450001"
           cx="2.54"
           class="l20"
           sodipodi:cx="2.54"
           sodipodi:cy="-44.450001"
           sodipodi:rx="1.651"
           sodipodi:ry="1.651"
           d="m 4.191,-44.450001 c 0,0.911822 -0.7391779,1.651 -1.651,1.651 -0.9118222,0 -1.65100006,-0.739178 -1.65100006,-1.651 0,-0.911822 0.73917786,-1.651 1.65100006,-1.651 0.9118221,0 1.651,0.739178 1.651,1.651 z" />
      </g>
      <g
         style="stroke:#ffffff;stroke-width:0.19999999;stroke-miterlimit:4;stroke-opacity:1;stroke-dasharray:none"
         transform="matrix(3.5433072,0,0,3.5433072,113.38583,-340.19536)"
         id="g4656">
        <title
           id="title4658">PART STANDOFF3</title>
        <circle
           id="circle4660"
           style="fill:none;stroke:#ffffff;stroke-width:0.19999999;stroke-miterlimit:4;stroke-opacity:1;stroke-dasharray:none"
           r="1.651"
           cy="-44.450001"
           cx="44.450001"
           class="l20"
           sodipodi:cx="44.450001"
           sodipodi:cy="-44.450001"
           sodipodi:rx="1.651"
           sodipodi:ry="1.651"
           d="m 46.101001,-44.450001 c 0,0.911822 -0.739178,1.651 -1.651,1.651 -0.911822,0 -1.651,-0.739178 -1.651,-1.651 0,-0.911822 0.739178,-1.651 1.651,-1.651 0.911822,0 1.651,0.739178 1.651,1.651 z" />
      </g>
      <g
         style="stroke:#ffffff;stroke-width:0.19999999;stroke-miterlimit:4;stroke-opacity:1;stroke-dasharray:none"
         transform="matrix(3.5433072,0,0,3.5433072,113.38583,-340.19536)"
         id="g4662">
        <title
           id="title4664">PART STANDOFF4</title>
        <circle
           id="circle4666"
           style="fill:none;stroke:#ffffff;stroke-width:0.19999999;stroke-miterlimit:4;stroke-opacity:1;stroke-dasharray:none"
           r="1.651"
           cy="-2.54"
           cx="44.450001"
           class="l20"
           sodipodi:cx="44.450001"
           sodipodi:cy="-2.54"
           sodipodi:rx="1.651"
           sodipodi:ry="1.651"
           d="m 46.101001,-2.54 c 0,0.9118222 -0.739178,1.65100006 -1.651,1.65100006 -0.911822,0 -1.651,-0.73917786 -1.651,-1.65100006 0,-0.9118221 0.739178,-1.651 1.651,-1.651 0.911822,0 1.651,0.7391779 1.651,1.651 z" />
      </g>
      <g
         transform="matrix(3.5433072,0,0,3.5433072,113.38583,-340.19536)"
         id="g4668">
        <title
           id="title4670">PART U1</title>
        <line
           id="line4672"
           style="fill:none;stroke:#ffffff;stroke-width:0.127;stroke-linecap:round"
           y2="-11.97"
           x2="18.82"
           y1="-15.97"
           x1="18.82"
           class="l21" />
        <line
           id="line4674"
           style="fill:none;stroke:#ffffff;stroke-width:0.127;stroke-linecap:round"
           y2="-11.97"
           x2="21.82"
           y1="-11.97"
           x1="18.82"
           class="l21" />
        <line
           id="line4676"
           style="fill:none;stroke:#ffffff;stroke-width:0.127;stroke-linecap:round"
           y2="-15.97"
           x2="21.82"
           y1="-11.97"
           x1="21.82"
           class="l21" />
        <line
           id="line4678"
           style="fill:none;stroke:#ffffff;stroke-width:0.127;stroke-linecap:round"
           y2="-15.97"
           x2="18.82"
           y1="-15.97"
           x1="21.82"
           class="l21" />
        <circle
           id="circle4680"
           style="fill:none;stroke:#ffffff;stroke-width:0.127"
           r="0.1"
           cy="-15.57"
           cx="19.219999"
           class="l21"
           sodipodi:cx="19.219999"
           sodipodi:cy="-15.57"
           sodipodi:rx="0.1"
           sodipodi:ry="0.1"
           d="m 19.319999,-15.57 c 0,0.05523 -0.04477,0.1 -0.1,0.1 -0.05523,0 -0.1,-0.04477 -0.1,-0.1 0,-0.05523 0.04477,-0.1 0.1,-0.1 0.05523,0 0.1,0.04477 0.1,0.1 z" />
      </g>
      <g
         transform="translate(-104.15264,-508.40949)"
         id="g6257">
        <g
           transform="translate(219.09671,9.1211778)"
           style="fill:#ffffff;fill-opacity:1;stroke:none"
           id="g6247">
	<path
   sodipodi:nodetypes="ccccccssccccccsscccccccccccccccccccccccccccccccccssscccccccccccccccccccc"
   style="fill:#ffffff;fill-opacity:1;stroke:none"
   inkscape:connector-curvature="0"
   d="m 90.705337,150.04941 -2.140239,-0.39799 c -0.05208,-0.01 -0.109101,-0.0588 -0.126677,-0.10898 L 87.78238,148.0119 c -0.02448,-0.0473 -0.01979,-0.12147 0.01042,-0.16547 l 1.246986,-1.81749 c 0.02981,-0.0438 0.02395,-0.11028 -0.01367,-0.14791 l -1.557495,-1.55749 c -0.03762,-0.0377 -0.104024,-0.0438 -0.147768,-0.0136 l -1.849388,1.26911 c -0.04374,0.0301 -0.118736,0.0354 -0.166256,0.012 l -1.483677,-0.60735 c -0.05039,-0.0166 -0.09947,-0.073 -0.109362,-0.12525 l -0.41206,-2.21366 c -0.0097,-0.0522 -0.06106,-0.0949 -0.11418,-0.0949 l -2.20286,0 c -0.05299,0 -0.104414,0.0427 -0.114049,0.0949 l -0.41193,2.21366 c -0.0099,0.0522 -0.05885,0.10859 -0.109361,0.12525 l -1.483807,0.60735 c -0.04765,0.0234 -0.122641,0.0181 -0.166256,-0.012 l -1.849257,-1.26911 c -0.04388,-0.0301 -0.110404,-0.0239 -0.147899,0.0136 l -1.557626,1.55749 c -0.0375,0.0377 -0.04374,0.10416 -0.01367,0.14791 l 1.247116,1.81749 c 0.02995,0.0439 0.03463,0.11821 0.01028,0.16547 l -0.656171,1.53054 c -0.01745,0.0502 -0.07434,0.0992 -0.126678,0.10898 l -2.140108,0.39799 c -0.05234,0.01 -0.0949,0.0612 -0.0949,0.11431 l 1.3e-4,2.20274 c 0,0.0531 0.04271,0.1048 0.09492,0.11431 l 2.08764,0.38849 c 0.05221,0.01 0.10806,0.0591 0.123943,0.10975 l 0.651745,1.62806 c 0.02331,0.0478 0.01784,0.12251 -0.01237,0.16625 l -1.185794,1.72806 c -0.02995,0.0438 -0.02383,0.11039 0.01367,0.14802 l 1.557756,1.5575 c 0.0375,0.0374 0.104024,0.0435 0.147899,0.0136 l 1.697452,-1.1651 c 0.04374,-0.0299 0.117043,-0.0323 0.162741,-0.006 l 0.748608,0.3997 c 0.0474,0.0242 0.102723,0.004 0.123032,-0.0453 l 1.543565,-3.72963 c 0.02044,-0.0491 0,-0.1117 -0.0453,-0.13944 l -0.187347,-0.1147 c -0.03463,-0.0211 -0.08163,-0.0574 -0.118476,-0.0907 -0.67583,-0.43277 -1.124214,-1.18983 -1.124214,-2.05197 0,-1.34541 1.090755,-2.43603 2.436036,-2.43603 1.345281,0 2.435906,1.09062 2.435906,2.43603 0,0.86214 -0.448254,1.6192 -1.124215,2.05197 -0.03658,0.0333 -0.08371,0.0696 -0.118215,0.0907 l -0.187347,0.1147 c -0.04504,0.0277 -0.06562,0.0903 -0.0453,0.13944 l 1.543436,3.72976 c 0.02031,0.0491 0.07551,0.0694 0.123032,0.0453 l 0.748608,-0.39969 c 0.04583,-0.0267 0.118996,-0.0245 0.162741,0.006 l 1.697583,1.16509 c 0.04374,0.0298 0.110403,0.0237 0.147768,-0.0136 l 1.557756,-1.55749 c 0.03762,-0.0377 0.04374,-0.10429 0.01367,-0.14804 l -1.185925,-1.72804 c -0.02995,-0.0438 -0.03554,-0.11848 -0.01224,-0.16625 l 0.651745,-1.62807 c 0.01601,-0.0506 0.07147,-0.10025 0.123812,-0.10975 l 2.087641,-0.3885 c 0.05208,-0.01 0.09492,-0.0612 0.09492,-0.11431 l 2.61e-4,-2.20272 c 1.31e-4,-0.0533 -0.04257,-0.10455 -0.09465,-0.11445 z"
   id="path6249" />

</g>
      </g>
    </g>
    <g
       id="copper0"
       inkscape:label="copper0">
      <path
         id="circle4316"
         transform="translate(0,-567.64025)"
         d="m 140.65625,93.78125 c -4.22498,0 -7.625,3.431272 -7.625,7.65625 0,4.22498 3.40002,7.65625 7.625,7.65625 4.22498,0 7.65625,-3.43127 7.65625,-7.65625 0,-4.224978 -3.43127,-7.65625 -7.65625,-7.65625 z m 0,2.34375 c 2.93263,0 5.3125,2.379868 5.3125,5.3125 0,2.93263 -2.37987,5.3125 -5.3125,5.3125 -2.93263,0 -5.3125,-2.37987 -5.3125,-5.3125 0,-2.932632 2.37987,-5.3125 5.3125,-5.3125 z"
         style="fill:#f7bd13;fill-opacity:1"
         inkscape:connector-curvature="0" />
      <path
         id="circle4320"
         transform="translate(0,-567.64025)"
         d="m 151.3125,110.4375 c -4.22498,0 -7.65625,3.43127 -7.65625,7.65625 0,4.22498 3.43127,7.65625 7.65625,7.65625 4.22498,0 7.625,-3.43127 7.625,-7.65625 0,-4.22498 -3.40002,-7.65625 -7.625,-7.65625 z m 0,2.34375 c 2.93263,0 5.28125,2.37987 5.28125,5.3125 0,2.93263 -2.34862,5.3125 -5.28125,5.3125 -2.93263,0 -5.3125,-2.37987 -5.3125,-5.3125 0,-2.93263 2.37987,-5.3125 5.3125,-5.3125 z"
         style="fill:#f7bd13;fill-opacity:1"
         inkscape:connector-curvature="0" />
      <path
         id="circle4324"
         transform="translate(0,-567.64025)"
         d="m 161.9375,93.78125 c -4.22498,0 -7.65625,3.431272 -7.65625,7.65625 0,4.22498 3.43127,7.65625 7.65625,7.65625 4.22498,0 7.65625,-3.43127 7.65625,-7.65625 0,-4.224978 -3.43127,-7.65625 -7.65625,-7.65625 z m 0,2.34375 c 2.93263,0 5.3125,2.379868 5.3125,5.3125 0,2.93263 -2.37987,5.3125 -5.3125,5.3125 -2.93263,0 -5.3125,-2.37987 -5.3125,-5.3125 0,-2.932632 2.37987,-5.3125 5.3125,-5.3125 z"
         style="fill:#f7bd13;fill-opacity:1"
         inkscape:connector-curvature="0" />
      <path
         id="circle4382"
         transform="translate(0,-567.64025)"
         d="m 270.875,129.625 c -1.83911,0 -3.3125,1.47339 -3.3125,3.3125 0,1.83911 1.47339,3.34375 3.3125,3.34375 1.83911,0 3.34375,-1.50464 3.34375,-3.34375 0,-1.83911 -1.50464,-3.3125 -3.34375,-3.3125 z m 0,1.53125 c 0.99411,0 1.8125,0.78714 1.8125,1.78125 0,0.99411 -0.81839,1.8125 -1.8125,1.8125 -0.99411,0 -1.78125,-0.81839 -1.78125,-1.8125 0,-0.99411 0.78714,-1.78125 1.78125,-1.78125 z"
         style="fill:#f7bd13;fill-opacity:1"
         inkscape:connector-curvature="0" />
      <path
         id="circle4386"
         transform="translate(0,-567.64025)"
         d="m 270.875,120.625 c -1.83911,0 -3.3125,1.47339 -3.3125,3.3125 0,1.83911 1.47339,3.34375 3.3125,3.34375 1.83911,0 3.34375,-1.50464 3.34375,-3.34375 0,-1.83911 -1.50464,-3.3125 -3.34375,-3.3125 z m 0,1.53125 c 0.99411,0 1.8125,0.78714 1.8125,1.78125 0,0.99411 -0.81839,1.8125 -1.8125,1.8125 -0.99411,0 -1.78125,-0.81839 -1.78125,-1.8125 0,-0.99411 0.78714,-1.78125 1.78125,-1.78125 z"
         style="fill:#f7bd13;fill-opacity:1"
         inkscape:connector-curvature="0" />
      <path
         id="rect4408"
         transform="translate(0,-567.64025)"
         d="m 260.53125,156.78125 0,7.21875 7.21875,0 0,-7.21875 -7.21875,0 z m 3.59375,1.5 c 1.17415,0 2.125,0.95085 2.125,2.125 0,1.17415 -0.95085,2.125 -2.125,2.125 -1.17415,0 -2.125,-0.95085 -2.125,-2.125 0,-1.17415 0.95085,-2.125 2.125,-2.125 z"
         style="fill:#f7bd13;fill-opacity:1"
         inkscape:connector-curvature="0" />
      <path
         id="circle4412"
         transform="translate(0,-567.64025)"
         d="m 264.125,144.40625 c -1.98823,0 -3.59375,1.60552 -3.59375,3.59375 0,1.98823 1.60552,3.59375 3.59375,3.59375 1.98823,0 3.625,-1.60552 3.625,-3.59375 0,-1.98823 -1.63677,-3.59375 -3.625,-3.59375 z m 0,1.46875 c 1.17415,0 2.125,0.95085 2.125,2.125 0,1.17415 -0.95085,2.125 -2.125,2.125 -1.17415,0 -2.125,-0.95085 -2.125,-2.125 0,-1.17415 0.95085,-2.125 2.125,-2.125 z"
         style="fill:#f7bd13;fill-opacity:1"
         inkscape:connector-curvature="0" />
      <path
         id="rect4434"
         transform="translate(0,-567.64025)"
         d="m 123.28125,93.34375 0,7.1875 7.21875,0 0,-7.1875 -7.21875,0 z m 3.59375,1.46875 c 1.17415,0 2.125,0.950851 2.125,2.125 0,1.174149 -0.95085,2.125 -2.125,2.125 -1.17415,0 -2.125,-0.950851 -2.125,-2.125 0,-1.174149 0.95085,-2.125 2.125,-2.125 z"
         style="fill:#f7bd13;fill-opacity:1"
         inkscape:connector-curvature="0" />
      <path
         id="circle4438"
         transform="translate(0,-567.64025)"
         d="m 126.875,105.75 c -1.98823,0 -3.59375,1.60552 -3.59375,3.59375 0,1.98823 1.60552,3.59375 3.59375,3.59375 1.98823,0 3.625,-1.60552 3.625,-3.59375 0,-1.98823 -1.63677,-3.59375 -3.625,-3.59375 z m 0,1.46875 c 1.17415,0 2.125,0.95085 2.125,2.125 0,1.17415 -0.95085,2.125 -2.125,2.125 -1.17415,0 -2.125,-0.95085 -2.125,-2.125 0,-1.17415 0.95085,-2.125 2.125,-2.125 z"
         style="fill:#f7bd13;fill-opacity:1"
         inkscape:connector-curvature="0" />
      <path
         id="rect4460"
         transform="translate(0,-567.64025)"
         d="m 123.28125,124.84375 0,7.1875 7.21875,0 0,-7.1875 -7.21875,0 z m 3.59375,1.46875 c 1.17415,0 2.125,0.95085 2.125,2.125 0,1.17415 -0.95085,2.125 -2.125,2.125 -1.17415,0 -2.125,-0.95085 -2.125,-2.125 0,-1.17415 0.95085,-2.125 2.125,-2.125 z"
         style="fill:#f7bd13;fill-opacity:1"
         inkscape:connector-curvature="0" />
      <path
         id="circle4464"
         transform="translate(0,-567.64025)"
         d="m 126.875,137.25 c -1.98823,0 -3.59375,1.60552 -3.59375,3.59375 0,1.98823 1.60552,3.59375 3.59375,3.59375 1.98823,0 3.625,-1.60552 3.625,-3.59375 0,-1.98823 -1.63677,-3.59375 -3.625,-3.59375 z m 0,1.46875 c 1.17415,0 2.125,0.95085 2.125,2.125 0,1.17415 -0.95085,2.125 -2.125,2.125 -1.17415,0 -2.125,-0.95085 -2.125,-2.125 0,-1.17415 0.95085,-2.125 2.125,-2.125 z"
         style="fill:#f7bd13;fill-opacity:1"
         inkscape:connector-curvature="0" />
      <path
         id="circle4548"
         transform="translate(0,-567.64025)"
         d="m 180.875,219.625 c -1.83911,0 -3.3125,1.47339 -3.3125,3.3125 0,1.83911 1.47339,3.34375 3.3125,3.34375 1.83911,0 3.34375,-1.50464 3.34375,-3.34375 0,-1.83911 -1.50464,-3.3125 -3.34375,-3.3125 z m 0,1.53125 c 0.99411,0 1.8125,0.78714 1.8125,1.78125 0,0.99411 -0.81839,1.8125 -1.8125,1.8125 -0.99411,0 -1.78125,-0.81839 -1.78125,-1.8125 0,-0.99411 0.78714,-1.78125 1.78125,-1.78125 z"
         style="fill:#f7bd13;fill-opacity:1"
         inkscape:connector-curvature="0" />
      <path
         id="circle4552"
         transform="translate(0,-567.64025)"
         d="m 171.875,219.625 c -1.83911,0 -3.3125,1.47339 -3.3125,3.3125 0,1.83911 1.47339,3.34375 3.3125,3.34375 1.83911,0 3.34375,-1.50464 3.34375,-3.34375 0,-1.83911 -1.50464,-3.3125 -3.34375,-3.3125 z m 0,1.53125 c 0.99411,0 1.8125,0.78714 1.8125,1.78125 0,0.99411 -0.81839,1.8125 -1.8125,1.8125 -0.99411,0 -1.78125,-0.81839 -1.78125,-1.8125 0,-0.99411 0.78714,-1.78125 1.78125,-1.78125 z"
         style="fill:#f7bd13;fill-opacity:1"
         inkscape:connector-curvature="0" />
      <path
         id="circle4556"
         transform="translate(0,-567.64025)"
         d="m 162.875,219.625 c -1.83911,0 -3.3125,1.47339 -3.3125,3.3125 0,1.83911 1.47339,3.34375 3.3125,3.34375 1.83911,0 3.34375,-1.50464 3.34375,-3.34375 0,-1.83911 -1.50464,-3.3125 -3.34375,-3.3125 z m 0,1.53125 c 0.99411,0 1.8125,0.78714 1.8125,1.78125 0,0.99411 -0.81839,1.8125 -1.8125,1.8125 -0.99411,0 -1.78125,-0.81839 -1.78125,-1.8125 0,-0.99411 0.78714,-1.78125 1.78125,-1.78125 z"
         style="fill:#f7bd13;fill-opacity:1"
         inkscape:connector-curvature="0" />
    </g>
  </g>
</svg>
